<?xml version="1.0" standalone="no"?>
<!DOCTYPE svg PUBLIC "-//W3C//DTD SVG 20010904//EN"
 "http://www.w3.org/TR/2001/REC-SVG-20010904/DTD/svg10.dtd">
<svg version="1.0" xmlns="http://www.w3.org/2000/svg"
 width="1274.000000pt" height="874.000000pt" viewBox="0 0 1274.000000 874.000000"
 preserveAspectRatio="xMidYMid meet">

<g transform="translate(0.000000,874.000000) scale(0.100000,-0.100000)"
fill="#000000" stroke="none">
<path d="M7275 8714 c44 -37 185 -143 250 -188 31 -21 55 -40 53 -41 -2 -2
-64 0 -138 5 -251 17 -413 19 -393 5 11 -7 51 -11 101 -10 46 0 85 -2 88 -6 2
-4 23 -5 46 -3 22 2 47 -1 55 -7 9 -9 13 -8 13 0 0 16 21 13 43 -6 11 -10 17
-12 13 -5 -9 15 8 16 35 2 13 -7 19 -7 19 0 0 15 26 12 40 -5 11 -13 15 -13
22 -3 6 10 21 0 55 -37 27 -29 37 -37 24 -18 -31 46 -26 61 10 27 22 -21 28
-24 23 -10 -12 30 18 14 44 -24 29 -44 30 -71 2 -45 -21 19 -21 19 -6 -10 15
-28 13 -45 -3 -45 -5 0 -14 14 -21 30 -7 17 -16 33 -21 36 -5 2 -2 -11 6 -30
16 -38 20 -76 8 -76 -5 1 -22 18 -40 38 -18 20 -46 53 -64 72 l-31 35 25 -35
c56 -79 109 -209 128 -314 6 -34 18 -73 26 -87 13 -22 14 -33 4 -59 -11 -32
-11 -33 8 -16 27 25 43 13 30 -22 -8 -22 -8 -25 2 -14 21 20 32 14 27 -18 -4
-28 -4 -29 14 -13 43 38 35 -21 -12 -85 -35 -49 -55 -55 -45 -14 6 27 6 27
-24 -8 -17 -19 -30 -41 -31 -47 0 -14 -30 -18 -30 -4 0 5 12 30 26 57 22 42
22 45 4 21 -12 -15 -26 -25 -31 -21 -13 8 -11 48 4 64 6 8 3 7 -9 -3 -30 -25
-47 -22 -42 8 4 19 2 23 -7 15 -14 -12 -8 -63 7 -54 5 3 12 -3 15 -15 3 -12
12 -21 20 -21 8 0 13 -7 11 -17 -4 -23 -38 -30 -38 -9 0 9 -6 13 -14 10 -9 -4
-16 2 -18 15 -3 19 -7 17 -50 -17 -45 -34 -62 -62 -37 -62 5 0 7 4 4 10 -3 5
0 7 8 4 9 -3 13 -13 10 -25 -5 -16 -8 -17 -22 -7 -14 12 -14 11 -2 -4 7 -10
20 -18 28 -18 7 0 16 -7 19 -15 5 -11 21 -15 60 -15 52 0 74 -14 37 -23 -10
-2 4 -4 31 -3 57 1 73 -19 24 -30 -18 -4 -27 -9 -20 -11 27 -10 10 -33 -33
-44 -25 -6 -48 -16 -51 -21 -7 -10 36 -55 48 -51 4 2 4 -5 1 -14 -4 -11 -3
-14 5 -9 7 4 12 3 12 -2 0 -6 6 -12 14 -15 23 -9 194 -37 276 -45 l75 -7 0
-122 c0 -67 3 -116 7 -110 4 7 8 60 8 119 0 122 -13 108 125 133 297 53 500
166 745 414 227 230 331 417 506 911 19 52 34 98 34 103 0 4 -79 7 -175 7
-149 0 -175 -2 -175 -15 0 -8 -8 -15 -17 -16 -14 0 -13 -2 5 -9 39 -16 24 -30
-34 -30 -34 0 -53 4 -49 10 3 6 16 10 28 11 21 0 21 1 -3 12 -35 16 -36 17
-20 27 19 12 -127 12 -155 0 -18 -8 -18 -9 -2 -9 23 -1 34 -30 16 -42 -10 -6
-10 -9 -1 -9 6 0 12 -9 12 -20 0 -11 -7 -20 -15 -20 -8 0 -15 -4 -15 -10 0 -5
9 -10 20 -10 25 0 27 -30 3 -30 -17 -1 -17 -1 0 -14 21 -16 22 -26 1 -26 -8 0
-12 -4 -9 -10 3 -5 15 -10 26 -10 25 0 25 -17 -1 -25 -24 -8 -17 -25 11 -25
25 0 25 -20 -1 -27 -33 -9 -24 -42 15 -59 40 -16 45 -31 13 -37 -21 -3 -20 -5
9 -16 39 -15 36 -30 -4 -24 l-28 4 25 -15 c14 -8 33 -15 43 -16 29 0 19 -20
-10 -20 -28 -1 -27 -1 7 -17 l35 -17 -27 -3 c-15 -3 -44 0 -64 6 -21 6 -40 9
-42 6 -4 -3 29 -13 103 -30 27 -6 28 -8 11 -17 -10 -6 -35 -8 -55 -5 -48 8
-18 -8 33 -17 56 -11 31 -31 -28 -22 -52 8 -106 44 -85 57 10 6 9 9 -4 15 -29
11 -84 116 -91 176 -1 10 -10 26 -20 37 -12 13 -14 21 -6 26 8 5 7 12 -4 24
-25 28 -44 94 -52 180 -5 59 -10 81 -20 81 -10 0 -14 -13 -14 -44 0 -52 -16
-70 -26 -29 -10 46 -12 49 -13 18 l-2 -30 -40 43 c-43 46 -69 54 -69 21 0 -15
5 -19 18 -15 13 4 37 -14 86 -63 56 -56 68 -75 73 -110 4 -27 2 -41 -6 -41 -6
0 -11 5 -11 10 0 6 -4 10 -10 10 -5 0 -34 12 -65 26 -45 22 -55 31 -56 53 -1
26 -1 26 -8 -3 -5 -24 -14 -31 -51 -41 -25 -7 -58 -19 -75 -28 -28 -16 -31
-16 -42 -1 -16 22 -33 103 -35 172 -1 44 -2 48 -5 17 -6 -68 -14 -105 -23
-105 -5 0 -11 8 -13 18 -4 16 -5 16 -6 -1 0 -10 -15 -24 -33 -32 l-33 -15 30
2 c26 3 31 -2 42 -32 11 -33 12 -34 12 -7 2 53 35 25 46 -38 11 -64 45 -216
60 -265 22 -74 26 -100 16 -100 -6 0 -18 12 -26 28 -14 23 -16 24 -11 4 3 -16
-2 -26 -17 -33 -12 -6 -32 -20 -44 -31 -21 -19 -22 -19 -31 -1 -15 27 -90 341
-98 406 -5 45 -4 57 7 57 12 0 12 2 1 9 -8 5 -18 43 -24 90 l-11 81 -81 0
c-44 0 -75 -4 -69 -8 18 -11 13 -102 -5 -102 -20 0 -190 68 -230 92 -17 11
-37 18 -43 16 -12 -4 103 -64 201 -103 105 -43 110 -48 97 -91 -6 -20 -17 -38
-24 -41 -31 -12 -293 107 -421 191 -92 61 -104 56 -14 -6 82 -56 225 -132 355
-188 53 -23 97 -46 97 -50 0 -9 -55 -30 -81 -30 -9 0 -19 -6 -22 -12 -8 -26
-183 47 -347 145 -84 50 -233 158 -245 177 -3 6 -14 10 -23 10 -13 -1 -9 -7
13 -26z m1805 -73 c0 -13 -26 -21 -65 -21 -33 0 -51 11 -38 24 10 9 103 7 103
-3z m-12 -37 c55 -15 -12 -37 -72 -24 l-31 7 25 11 c29 13 47 14 78 6z m30
-51 c2 -9 -11 -13 -49 -13 -32 0 -49 4 -43 9 22 22 85 24 92 4z m-593 -75 c52
-181 55 -218 21 -218 -39 0 -87 -24 -103 -50 -9 -17 -20 -30 -24 -30 -10 0
-41 87 -60 173 -19 87 -16 109 22 143 30 27 45 32 91 33 37 1 38 0 53 -51z
m89 8 c26 -18 59 -50 72 -70 42 -62 89 -223 51 -176 -7 9 -20 14 -29 12 -10
-2 -18 2 -18 8 0 10 -3 10 -14 1 -10 -8 -16 -9 -21 -1 -4 6 -14 9 -22 8 -23
-4 -49 44 -78 143 -36 120 -24 135 59 75z m516 24 c0 -5 -20 -10 -45 -10 -25
0 -45 5 -45 10 0 6 20 10 45 10 25 0 45 -4 45 -10z m15 -40 c-3 -5 -24 -10
-46 -10 -21 0 -39 5 -39 10 0 6 21 10 46 10 27 0 43 -4 39 -10z m-10 -41 c-18
-5 -33 -5 -39 1 -7 7 4 10 30 9 39 -1 39 -1 9 -10z m-1401 -41 c18 -26 20 -38
6 -38 -5 0 -16 14 -25 30 -18 35 -4 41 19 8z m106 -40 c0 -6 -10 -23 -22 -37
l-23 -25 32 22 c17 12 34 22 37 22 12 0 6 -24 -11 -44 -18 -21 -18 -21 2 -4
11 9 34 20 50 24 l30 7 -20 -23 -20 -23 22 12 c26 13 63 15 63 2 0 -5 -12 -14
-27 -19 -27 -10 -27 -10 12 -11 22 -1 55 -10 74 -22 35 -21 37 -38 3 -20 -12
6 -29 11 -39 11 -11 -1 -6 -6 14 -15 71 -30 96 -136 48 -194 -14 -16 -33 -32
-43 -34 -9 -2 -6 -3 8 -2 14 2 36 7 49 11 18 5 22 4 16 -5 -12 -21 -71 -41
-122 -42 l-48 -1 44 -14 c68 -21 63 -27 -17 -22 -63 5 -78 10 -105 34 l-32 29
30 -33 c17 -19 42 -40 58 -48 31 -16 36 -34 10 -34 -31 0 -95 46 -120 86 -22
34 -24 36 -19 12 8 -35 -6 -36 -32 -3 -12 16 -18 33 -14 47 3 13 1 19 -5 15
-13 -8 -28 82 -18 112 5 15 2 21 -9 21 -21 0 -20 29 1 82 23 59 58 103 96 122
39 19 47 20 47 4z m885 -144 c26 -16 58 -35 72 -43 18 -9 24 -19 21 -36 -4
-17 0 -25 14 -28 10 -3 18 0 18 6 1 16 30 -24 30 -40 0 -17 -17 -17 -23 0 -2
6 -3 0 -1 -15 3 -25 -1 -27 -49 -38 -98 -22 -107 -22 -119 5 -7 16 -19 25 -35
25 -12 0 -23 5 -23 11 0 5 -5 7 -10 4 -16 -10 -1 -25 23 -25 12 0 28 -9 35
-21 16 -26 10 -34 -16 -20 -11 6 -22 7 -26 4 -3 -3 -29 -15 -58 -25 -61 -21
-62 -21 -107 66 -37 69 -40 122 -10 160 27 34 69 46 151 42 52 -3 77 -9 113
-32z m220 -85 c4 -6 5 -12 3 -14 -7 -7 -48 7 -48 16 0 13 37 11 45 -2z m-551
-20 c14 -11 35 -38 45 -60 l19 -39 -26 -5 c-15 -3 -45 -15 -67 -25 -22 -11
-43 -20 -47 -20 -12 0 -26 93 -18 116 8 20 46 54 61 54 3 0 18 -9 33 -21z
m496 -69 c0 -5 -4 -10 -10 -10 -5 0 -10 5 -10 10 0 6 5 10 10 10 6 0 10 -4 10
-10z m20 -30 c0 -5 -4 -10 -10 -10 -5 0 -10 5 -10 10 0 6 5 10 10 10 6 0 10
-4 10 -10z m-65 -9 c3 -5 1 -12 -5 -16 -5 -3 -10 1 -10 9 0 18 6 21 15 7z m35
-1 c0 -5 -4 -10 -10 -10 -5 0 -10 5 -10 10 0 6 5 10 10 10 6 0 10 -4 10 -10z
m-100 -15 c0 -8 -7 -15 -15 -15 -16 0 -20 12 -8 23 11 12 23 8 23 -8z m40 5
c0 -5 -7 -10 -15 -10 -8 0 -15 5 -15 10 0 6 7 10 15 10 8 0 15 -4 15 -10z
m-303 -152 c40 -78 70 -144 67 -147 -3 -4 -21 12 -40 34 l-35 40 35 -62 c19
-35 31 -63 25 -63 -8 0 -35 34 -112 140 -10 14 5 -20 33 -75 l52 -100 -45 48
c-55 60 -144 208 -153 254 -5 27 -2 37 17 53 13 10 38 19 54 20 29 0 33 -7
102 -142z m163 99 c0 -5 -7 -6 -16 -3 -13 5 -14 4 -6 -7 19 -22 3 -56 -24 -54
-26 2 -34 22 -10 22 8 0 18 4 22 8 4 4 -1 7 -10 7 -12 0 -16 5 -12 16 3 8 2
12 -4 9 -6 -3 -10 -13 -10 -21 0 -24 -25 -10 -28 15 -2 14 0 21 6 17 6 -4 14
-1 17 5 14 21 49 28 63 11 6 -9 12 -20 12 -25z m30 28 c7 -9 10 -18 7 -22 -8
-7 -37 15 -37 28 0 14 16 11 30 -6z m90 -3 c0 -13 -12 -22 -22 -16 -10 6 -1
24 13 24 5 0 9 -4 9 -8z m31 -15 c-13 -13 -26 -3 -16 12 3 6 11 8 17 5 6 -4 6
-10 -1 -17z m59 13 c0 -5 -2 -10 -4 -10 -3 0 -8 5 -11 10 -3 6 -1 10 4 10 6 0
11 -4 11 -10z m-338 -111 c32 -57 57 -108 57 -114 0 -18 -57 56 -88 114 -42
80 -54 114 -39 109 7 -3 39 -51 70 -109z m-492 81 c0 -5 -7 -10 -15 -10 -8 0
-15 5 -15 10 0 6 7 10 15 10 8 0 15 -4 15 -10z m517 -22 c9 -18 17 -35 18 -38
0 -3 4 -10 8 -17 4 -6 3 -14 -2 -17 -10 -6 -51 66 -51 89 0 23 8 18 27 -17z
m175 -22 c-3 -6 -8 -4 -10 4 -11 33 -52 28 -52 -6 0 -8 -5 -14 -11 -14 -6 0
-8 6 -5 13 3 6 9 20 12 29 3 9 13 19 23 21 18 4 53 -32 43 -47z m-22 3 c0 -5
-7 -9 -15 -9 -15 0 -20 12 -9 23 8 8 24 -1 24 -14z m55 -30 c-4 -5 -1 -9 4 -9
6 0 11 -8 11 -17 0 -15 -4 -13 -19 7 -19 24 -19 46 0 34 5 -3 7 -10 4 -15z
m-144 -12 c-13 -13 -26 -3 -16 12 3 6 11 8 17 5 6 -4 6 -10 -1 -17z m65 -4
c-10 -10 -19 5 -10 18 6 11 8 11 12 0 2 -7 1 -15 -2 -18z m44 17 c0 -5 -7 -10
-16 -10 -8 0 -12 5 -9 10 3 6 10 10 16 10 5 0 9 -4 9 -10z m-890 -63 c0 -17
-29 -57 -41 -57 -13 0 -11 27 3 50 14 22 38 27 38 7z m386 -13 c49 -18 60 -38
17 -28 -25 5 -24 3 10 -17 56 -35 48 -55 -10 -25 -66 33 -109 42 -50 11 32
-17 47 -32 47 -45 0 -11 4 -20 10 -20 10 0 60 -81 60 -98 0 -26 -19 -9 -59 50
-27 40 -53 67 -74 76 -31 13 -31 12 10 -22 46 -40 93 -125 93 -168 0 -31 -17
-38 -26 -10 -18 55 -40 94 -72 124 l-36 33 31 -37 c32 -37 53 -92 53 -135 0
-39 -17 -25 -40 32 -12 31 -27 58 -32 61 -5 4 -3 -8 6 -24 19 -38 22 -126 4
-120 -7 3 -15 19 -19 37 -11 54 -18 46 -12 -13 5 -48 3 -56 -11 -56 -10 0 -16
8 -16 23 -1 12 -7 36 -14 52 l-13 30 2 -30 c2 -16 6 -38 10 -48 10 -25 -12
-48 -25 -27 -6 8 -8 21 -5 28 2 6 -2 12 -10 12 -8 0 -15 -7 -15 -15 0 -8 -2
-15 -4 -15 -2 0 -12 -3 -22 -7 -14 -5 -16 -2 -11 19 4 16 2 30 -6 36 -10 8
-13 5 -12 -15 0 -34 -28 -52 -55 -35 -18 11 -20 10 -20 -9 0 -22 0 -22 -21 -3
-16 14 -23 15 -26 7 -7 -21 -23 -15 -35 13 -12 25 -12 25 -20 5 -9 -26 -28
-27 -28 -2 0 16 -6 19 -30 16 -36 -5 -36 -4 -10 94 15 58 27 82 57 113 46 47
94 78 137 88 23 6 25 8 9 9 -13 1 -23 5 -23 9 0 9 44 32 61 32 6 0 25 7 42 14
62 29 128 29 203 0z m-356 -14 c-12 -23 -30 -27 -30 -7 0 17 10 27 27 27 11 0
11 -5 3 -20z m439 -124 c30 -48 25 -57 -9 -17 -16 19 -27 38 -24 43 8 13 11
10 33 -26z m-724 -216 c3 -5 1 -10 -4 -10 -6 0 -11 5 -11 10 0 6 2 10 4 10 3
0 8 -4 11 -10z"/>
<path d="M7955 8173 c36 -6 71 -36 80 -70 7 -30 -16 -70 -48 -83 -18 -7 -19
-9 -4 -9 29 -1 67 44 67 79 0 45 -47 91 -92 89 l-33 -2 30 -4z"/>
<path d="M7910 8111 c-5 -11 -10 -30 -9 -43 1 -18 3 -17 8 8 4 17 11 36 15 42
4 7 5 12 2 12 -3 0 -10 -9 -16 -19z"/>
<path d="M7741 7994 c0 -11 3 -14 6 -6 3 7 2 16 -1 19 -3 4 -6 -2 -5 -13z"/>
<path d="M7877 7949 c7 -7 15 -10 18 -7 3 3 -2 9 -12 12 -14 6 -15 5 -6 -5z"/>
<path d="M8671 8064 c0 -11 3 -14 6 -6 3 7 2 16 -1 19 -3 4 -6 -2 -5 -13z"/>
<path d="M8772 8073 c-6 -2 -9 -9 -6 -15 3 -5 -2 -16 -12 -24 -18 -13 -17 -14
11 -7 16 3 35 6 42 6 7 0 13 4 13 9 0 5 -9 6 -20 3 -22 -7 -29 20 -7 28 6 3 8
5 2 5 -5 0 -16 -2 -23 -5z"/>
<path d="M8708 8058 c6 -6 18 -8 28 -6 14 3 12 5 -9 10 -19 3 -25 2 -19 -4z"/>
<path d="M8518 7983 c7 -3 16 -2 19 1 4 3 -2 6 -13 5 -11 0 -14 -3 -6 -6z"/>
<path d="M8048 7713 c6 -2 18 -2 25 0 6 3 1 5 -13 5 -14 0 -19 -2 -12 -5z"/>
<path d="M8223 8705 c0 -22 2 -30 4 -17 2 12 2 30 0 40 -3 9 -5 -1 -4 -23z"/>
<path d="M9618 8646 c-20 -52 -44 -123 -53 -158 -35 -136 -194 -472 -290 -613
-69 -102 -103 -142 -232 -272 -40 -40 -73 -76 -73 -80 0 -8 67 53 116 106 23
24 33 29 37 20 4 -11 6 -11 7 1 2 27 39 63 57 55 15 -5 16 -4 6 6 -17 17 -16
29 3 29 8 0 12 5 9 10 -3 6 1 13 9 16 9 3 16 12 16 20 0 8 5 14 10 14 6 0 10
6 10 14 0 7 11 25 25 40 14 15 25 30 25 33 0 4 6 14 14 22 26 30 163 307 206
414 23 59 45 109 49 112 4 2 29 -7 56 -21 36 -18 58 -23 82 -18 22 4 33 2 33
-6 0 -6 -20 -54 -45 -106 -25 -51 -45 -100 -45 -108 0 -38 -161 -326 -182
-326 -5 0 -6 5 -2 12 4 7 3 8 -5 4 -6 -4 -9 -16 -6 -27 7 -22 -5 -25 -24 -6
-10 10 -10 7 -2 -15 9 -23 8 -28 -4 -28 -8 0 -15 -6 -15 -14 0 -17 -42 -26
-64 -14 -12 7 -16 5 -16 -7 0 -8 -6 -15 -13 -15 -7 0 -21 -11 -31 -25 -11 -14
-33 -32 -51 -40 -30 -15 -105 -116 -105 -142 0 -7 -4 -13 -8 -13 -4 0 -8 -9
-9 -21 -2 -26 -21 -49 -42 -50 -10 0 -11 -2 -3 -6 24 -9 12 -23 -18 -19 -24 3
-28 1 -19 -10 13 -15 4 -34 -17 -34 -8 0 -14 -6 -14 -12 -1 -16 -50 -53 -50
-38 0 5 -5 10 -11 10 -5 0 -7 -5 -4 -10 7 -11 -18 -40 -34 -40 -6 0 -11 -5
-11 -10 0 -6 -12 -15 -27 -21 -15 -5 -32 -18 -39 -27 -7 -10 -36 -29 -66 -42
-29 -14 -57 -30 -63 -37 -5 -7 -48 -29 -95 -49 -47 -20 -96 -41 -110 -47 -14
-6 -29 -11 -35 -12 -5 0 -19 -6 -30 -12 -20 -11 -96 -30 -225 -57 -46 -10 -56
-14 -33 -15 18 -1 72 8 120 19 246 57 476 170 684 334 89 71 123 80 49 13
-103 -93 -249 -191 -365 -247 -250 -120 -408 -159 -661 -161 -99 0 -164 -5
-164 -11 0 -5 8 -8 18 -7 45 4 72 -2 72 -16 0 -8 5 -15 11 -15 5 0 7 5 4 10
-9 14 19 12 33 -2 10 -10 15 -10 20 -1 4 6 30 11 59 10 29 0 56 3 60 6 11 12
25 8 17 -5 -6 -9 -3 -9 9 0 9 8 21 11 27 7 5 -3 10 -2 10 3 0 9 56 21 130 28
14 1 25 3 25 4 0 1 13 4 29 6 15 3 39 12 53 21 20 13 26 14 33 4 6 -11 8 -11
12 0 7 22 28 -1 28 -32 0 -29 -14 -40 -23 -16 -5 12 -11 -17 -8 -40 2 -17 -18
-17 -25 0 -4 11 -16 11 -66 1 -34 -7 -67 -10 -72 -7 -6 4 -5 0 1 -9 14 -16 8
-28 -15 -28 -9 0 -13 7 -10 18 4 14 0 18 -16 17 -13 -1 -22 -10 -24 -23 -4
-26 -49 -31 -58 -7 -4 8 -12 15 -20 15 -8 0 -14 -7 -14 -15 0 -8 -8 -16 -17
-16 -10 -1 -30 -3 -45 -5 -19 -2 -28 2 -28 11 0 20 -20 29 -33 15 -9 -9 -9
-11 2 -8 7 2 16 -3 19 -11 3 -10 0 -12 -12 -8 -9 4 -16 3 -16 -2 0 -5 -20 -6
-44 -4 -42 5 -45 4 -52 -21 -4 -17 -2 -32 6 -39 10 -9 11 -9 6 0 -5 9 -2 11 9
7 14 -6 14 -8 -2 -20 -10 -7 -13 -14 -7 -14 7 0 11 -8 10 -17 0 -10 7 -18 19
-20 l20 -3 -20 9 c-11 5 -14 10 -7 10 7 1 10 6 6 13 -5 7 -3 8 5 3 24 -14 343
30 460 65 37 10 55 5 31 -10 -44 -27 -323 -80 -423 -80 -25 0 -48 -4 -51 -8
-7 -12 29 -63 39 -55 5 5 4 1 -2 -7 -9 -11 -8 -19 1 -32 7 -10 17 -14 21 -10
4 4 0 -5 -10 -21 -16 -24 -16 -27 -1 -21 12 5 15 2 10 -11 -6 -14 -3 -16 14
-10 23 7 31 -8 11 -21 -8 -5 -6 -10 5 -16 9 -5 13 -14 9 -21 -14 -22 -11 -35
7 -32 21 4 33 -28 16 -45 -8 -8 -7 -9 7 -4 14 5 16 2 10 -12 -6 -17 -5 -18 12
-4 17 14 18 13 12 -2 -4 -11 -2 -18 6 -18 8 0 7 -4 -3 -10 -13 -9 -12 -13 6
-28 29 -24 34 -45 15 -60 -14 -12 -12 -13 11 -8 20 5 28 2 33 -13 3 -10 3 -26
-1 -35 -4 -9 -1 -16 6 -16 7 0 10 -7 6 -15 -3 -9 0 -15 8 -15 7 0 13 -7 13
-15 0 -8 -5 -15 -10 -15 -6 0 -7 -3 -4 -6 4 -4 13 -1 21 5 12 10 16 8 21 -8 3
-12 14 -21 23 -22 13 0 14 -2 3 -6 -8 -3 -20 2 -28 13 -7 10 -13 14 -13 10 0
-4 10 -22 22 -38 l21 -31 82 5 c101 7 171 39 294 137 100 79 149 111 174 111
28 0 19 -17 -25 -48 -24 -17 -77 -58 -118 -91 -41 -34 -111 -80 -155 -102 -67
-33 -94 -41 -163 -46 -79 -6 -104 -14 -82 -28 5 -3 10 -1 10 6 0 8 4 8 15 -1
8 -7 12 -17 8 -23 -4 -6 0 -8 11 -4 10 4 15 3 11 -3 -3 -5 10 -17 29 -27 36
-17 49 -43 22 -43 -30 0 -23 -16 7 -18 108 -7 290 -103 274 -144 -6 -18 -101
-33 -145 -24 -15 4 -42 8 -60 11 -18 2 -40 9 -48 16 -12 10 -13 9 -8 -5 3 -9
18 -19 33 -23 25 -6 88 -38 135 -69 34 -21 41 -45 16 -51 -25 -7 -16 -23 12
-23 23 0 127 -56 171 -92 20 -17 26 -28 21 -41 -10 -27 -45 -37 -127 -37 -64
-1 -69 -2 -49 -13 12 -7 19 -17 15 -22 -4 -5 0 -3 10 4 15 12 20 11 39 -5 12
-11 18 -13 14 -6 -12 20 23 26 43 8 18 -16 19 -16 17 0 -2 26 20 28 42 4 l19
-21 -4 26 c-7 35 24 34 54 -2 18 -22 22 -24 23 -10 0 24 17 21 35 -7 10 -15
23 -22 34 -19 11 3 24 -5 35 -23 13 -18 20 -23 26 -14 5 8 14 3 29 -16 12 -15
29 -29 38 -30 8 -2 22 -12 30 -23 8 -12 23 -21 35 -21 11 0 29 -12 40 -26 16
-20 23 -23 30 -12 6 10 14 7 33 -15 17 -19 25 -23 25 -13 0 23 16 20 34 -6 13
-18 16 -19 16 -5 0 20 21 22 38 5 9 -9 12 -9 12 0 0 20 26 14 44 -10 l17 -23
-6 23 c-4 12 -3 22 2 22 17 0 32 -17 57 -60 14 -25 26 -37 26 -27 0 26 17 20
36 -13 10 -17 21 -25 25 -19 3 6 17 -2 32 -20 14 -17 31 -30 38 -29 6 2 27
-16 45 -40 19 -25 34 -37 34 -28 0 20 14 20 30 1 7 -9 19 -14 26 -11 7 2 20
-4 30 -15 12 -13 21 -16 29 -9 9 7 16 6 25 -5 10 -12 16 -13 27 -3 12 10 18 9
28 -5 10 -13 14 -15 17 -5 4 11 8 11 20 0 13 -10 17 -10 21 0 3 9 11 6 30 -10
17 -16 26 -20 29 -11 3 8 11 10 24 5 34 -14 157 -16 191 -4 28 10 35 9 54 -8
16 -14 23 -15 26 -6 6 15 42 16 79 2 15 -6 62 -15 103 -20 129 -14 154 -19
231 -40 41 -11 103 -25 136 -30 74 -11 192 -53 253 -88 43 -25 69 -32 122 -32
18 0 37 -12 58 -35 50 -57 33 -79 -22 -27 l-29 27 31 -49 c41 -66 41 -89 0
-50 -26 23 -29 25 -20 7 19 -37 12 -48 -15 -22 -25 23 -26 23 -15 2 19 -37 12
-48 -15 -22 l-27 24 12 -23 c19 -36 4 -39 -31 -6 l-32 29 22 -37 c27 -47 10
-50 -37 -5 l-34 32 22 -37 c28 -46 14 -48 -36 -6 -21 18 -32 26 -25 18 35 -40
-6 -40 -52 0 -29 26 -33 27 -29 10 3 -11 3 -20 1 -20 -12 0 -249 80 -273 92
-17 9 -36 13 -43 11 -7 -3 -24 2 -38 11 -13 9 -29 14 -34 11 -5 -3 -22 1 -38
9 -16 8 -32 13 -34 11 -5 -6 -174 30 -213 45 -14 5 -36 10 -48 10 -12 0 -33 9
-47 20 -34 27 -59 27 -35 0 10 -11 16 -22 13 -25 -7 -8 -94 21 -134 44 -19 12
-33 17 -29 12 12 -21 -14 -19 -41 1 -15 13 -25 17 -21 11 15 -23 -11 -22 -33
2 -18 19 -26 22 -32 13 -6 -10 -16 -4 -38 21 -23 26 -28 29 -23 12 8 -33 -13
-25 -37 14 -25 40 -30 44 -23 15 6 -24 -9 -26 -27 -5 -11 13 -15 13 -22 3 -6
-10 -14 -6 -30 15 -16 22 -23 26 -30 15 -6 -10 -16 -4 -42 25 -18 20 -40 37
-49 37 -9 0 -19 5 -22 10 -4 6 -12 10 -18 9 -21 -4 -47 13 -48 30 0 10 -2 11
-6 4 -7 -19 -20 -16 -49 15 -15 15 -23 21 -20 15 4 -7 4 -18 0 -25 -5 -7 -19
2 -40 28 -26 30 -32 34 -28 17 8 -31 -10 -29 -34 2 -13 17 -22 21 -25 13 -3
-9 -18 -3 -49 19 -28 20 -52 30 -65 27 -11 -3 -25 1 -32 9 -6 8 -20 13 -31 10
-12 -3 -22 3 -30 17 -9 18 -14 20 -20 9 -7 -11 -12 -10 -28 5 -15 13 -21 14
-24 4 -3 -8 -13 -3 -31 16 -20 21 -27 25 -27 12 0 -23 -9 -20 -43 12 -17 15
-27 22 -23 15 13 -23 -16 -25 -40 -2 -13 12 -24 17 -24 11 0 -19 -22 -14 -47
10 -20 19 -23 19 -23 4 0 -11 -4 -15 -12 -10 -10 6 -10 4 0 -8 11 -14 10 -18
-5 -26 -16 -9 -14 -12 14 -28 26 -16 31 -23 26 -46 -6 -30 -2 -33 97 -61 30
-9 79 -23 108 -32 l52 -17 0 -50 c0 -44 -4 -54 -34 -84 -19 -19 -43 -34 -55
-34 -12 0 -21 -4 -21 -9 0 -19 54 4 86 37 24 24 34 44 34 66 0 57 12 64 72 42
62 -22 263 -121 363 -179 107 -62 199 -125 442 -303 485 -357 600 -414 838
-414 61 0 132 6 160 14 220 59 408 256 619 648 119 220 321 452 516 591 110
78 344 197 445 226 39 11 105 27 148 36 l77 17 0 694 0 694 -37 0 -38 1 31 13
c56 25 53 39 -7 32 l-54 -7 49 28 c27 15 52 34 54 42 4 11 -4 9 -29 -6 -42
-24 -89 -37 -89 -24 0 6 20 22 44 36 46 27 86 65 68 65 -6 0 -35 -9 -64 -20
l-53 -20 29 23 c16 12 43 35 60 50 27 25 28 27 9 22 -31 -9 -29 10 2 31 31 20
33 37 3 29 -23 -6 -23 -6 -3 10 19 15 20 30 23 292 2 152 0 288 -3 301 -5 21
-10 23 -36 18 -16 -3 -56 -3 -88 0 -57 6 -58 7 -40 25 11 11 33 19 53 19 20 0
36 6 39 14 3 8 22 18 41 22 31 5 36 10 36 35 0 26 -3 29 -31 29 -27 0 -30 2
-19 15 7 8 10 24 7 34 -3 14 2 21 19 25 36 9 29 26 -10 26 -19 0 -42 7 -50 16
-9 8 -16 12 -16 7 0 -9 -51 -35 -57 -29 -3 2 4 12 15 22 10 11 36 49 57 86 21
36 49 71 62 77 15 7 23 19 23 36 0 30 4 30 -89 5 -83 -22 -111 -25 -111 -10 0
5 11 17 24 25 14 9 46 49 72 89 26 40 60 80 76 89 16 9 28 25 28 37 0 24 -5
24 -59 5 -22 -8 -69 -19 -104 -25 -34 -6 -73 -14 -86 -17 -21 -5 -22 -4 -11
16 26 50 142 159 202 192 69 37 59 52 -13 20 -49 -22 -59 -15 -33 23 25 39 8
31 -54 -25 -32 -28 -68 -56 -82 -63 -40 -21 -211 -78 -216 -73 -3 3 63 46 147
96 l152 91 -372 0 c-204 0 -371 -3 -371 -7 0 -5 -10 -19 -21 -33 -20 -24 -20
-18 -3 25 3 8 1 15 -4 15 -6 0 -23 -23 -39 -51 -15 -28 -29 -46 -31 -40 -2 7
1 17 6 24 17 20 32 67 23 67 -5 0 -21 -21 -36 -46 -31 -53 -43 -53 -21 1 19
45 19 45 2 45 -7 0 -21 -10 -29 -22 l-16 -23 6 23 5 22 -194 0 c-107 0 -198
-4 -204 -9 -5 -5 -27 -16 -49 -25 l-39 -17 24 26 23 25 -25 0 c-14 0 -31 -7
-38 -15 -7 -8 -26 -15 -43 -15 -29 0 -29 -1 -12 -14 18 -13 18 -14 -1 -24 -15
-8 -37 -5 -95 14 -40 14 -81 32 -90 40 -10 9 -32 14 -58 12 -34 -3 -41 -6 -41
-24 0 -30 -26 -50 -44 -35 -12 10 -15 6 -18 -26 -4 -53 -31 -56 -45 -6 -9 35
-10 34 -5 -19 4 -48 2 -58 -11 -58 -20 0 -37 57 -37 123 0 26 -4 47 -10 47
-17 0 -11 -94 10 -156 l21 -59 -56 -110 c-30 -60 -77 -175 -104 -255 -54 -159
-65 -168 -26 -20 29 108 94 264 138 329 l29 45 -23 44 c-13 27 -24 71 -27 112
l-4 66 -35 1 c-33 1 -33 0 -15 -13 24 -16 36 -52 52 -148 11 -66 10 -70 -19
-130 -17 -33 -35 -68 -40 -76 -12 -20 -50 -131 -70 -202 -17 -64 -37 -79 -26
-20 4 20 8 51 11 67 l4 30 -12 -32 c-11 -32 -28 -45 -28 -21 0 6 -3 8 -7 5 -7
-8 -33 11 -33 25 0 5 9 4 20 -2 25 -13 26 -2 3 16 -10 7 -15 16 -11 20 4 4 14
1 23 -6 8 -7 15 -8 15 -4 0 5 -9 15 -20 22 -19 11 -22 9 -35 -20 -14 -33 -19
-31 -15 7 2 19 1 19 -12 2 -9 -12 -20 -16 -31 -11 -18 6 -19 29 -1 29 5 0 15
4 22 8 6 5 18 5 25 2 6 -3 2 2 -10 11 -26 19 -32 74 -9 74 9 0 12 8 9 24 -4
21 19 80 38 96 3 3 14 24 24 48 13 29 25 42 39 43 12 0 15 3 9 6 -16 6 -17 33
-3 33 6 0 23 -7 38 -16 l27 -16 -25 21 c-14 11 -28 21 -32 21 -14 0 -8 20 6
20 8 0 17 7 20 16 3 8 10 12 16 9 6 -4 7 1 3 11 -5 13 -2 15 17 9 l23 -7 -19
26 -19 26 -167 -1 c-162 -1 -167 -1 -174 -22 -7 -22 -8 -22 -14 3 l-7 25 -8
-27 c-9 -35 -24 -37 -17 -3 4 25 3 25 -62 25 -37 0 -66 -4 -66 -10 0 -5 -5
-10 -11 -10 -5 0 -7 5 -4 10 4 6 -15 10 -49 10 l-56 0 -69 -137 c-81 -162
-113 -199 -164 -189 -19 4 -47 18 -62 32 -24 22 -27 31 -22 67 4 23 22 82 42
132 39 101 38 95 27 95 -4 0 -24 -42 -44 -94z m367 74 c3 -5 1 -10 -4 -10 -6
0 -11 5 -11 10 0 6 2 10 4 10 3 0 8 -4 11 -10z m1013 -35 c81 -26 105 -46 84
-67 -12 -12 -184 70 -191 91 -2 9 2 12 10 9 8 -3 51 -17 97 -33z m-1030 7 c2
-7 -2 -10 -12 -6 -9 3 -16 11 -16 16 0 13 23 5 28 -10z m1322 9 c0 -12 -15
-23 -105 -71 l-80 -43 30 32 c48 52 155 109 155 82z m-1218 -18 c-4 -10 -29
-60 -55 -110 -49 -96 -84 -180 -182 -438 -62 -162 -121 -295 -129 -295 -3 0 3
21 13 48 10 26 55 142 99 257 101 261 158 392 211 484 40 67 59 92 43 54z
m-72 -7 c0 -3 -4 -8 -10 -11 -5 -3 -10 -1 -10 4 0 6 5 11 10 11 6 0 10 -2 10
-4z m-40 -16 c0 -5 -4 -10 -10 -10 -5 0 -10 5 -10 10 0 6 5 10 10 10 6 0 10
-4 10 -10z m1029 -25 c40 -18 61 -34 61 -45 0 -24 -10 -31 -32 -19 -17 9 -18
8 -6 -10 17 -28 -4 -52 -30 -33 -38 27 -74 43 -122 55 -28 7 -52 17 -53 23 -4
18 71 15 127 -5 31 -11 54 -16 51 -12 -4 7 -23 15 -118 51 -40 14 -24 34 23
27 21 -3 65 -17 99 -32z m261 -2 c-1 -5 -17 -20 -37 -35 -20 -16 -30 -28 -22
-28 8 -1 -8 -21 -36 -47 -27 -25 -40 -40 -28 -34 58 30 32 -4 -56 -71 -79 -59
-98 -62 -46 -6 33 34 35 39 13 25 -45 -28 -35 5 15 48 23 21 32 32 20 26 -66
-34 -12 26 77 85 60 40 101 55 100 37z m1270 -50 c0 -9 -27 -43 -59 -74 -50
-49 -70 -61 -128 -78 -139 -40 -147 -38 -87 29 44 49 86 75 178 111 83 33 96
35 96 12z m-1591 -36 c48 -24 75 -56 54 -64 -7 -3 -20 -20 -29 -39 -9 -19 -20
-34 -25 -34 -5 0 -9 -9 -9 -20 l0 -20 -40 20 c-21 11 -45 20 -52 20 -7 0 6 -9
30 -20 46 -21 48 -24 30 -63 -9 -20 -18 -26 -32 -23 -14 4 -16 2 -7 -7 19 -19
12 -29 -16 -23 -27 6 -27 6 -9 -9 11 -8 17 -18 13 -21 -9 -9 -121 22 -172 47
l-40 19 40 -5 c22 -2 56 -7 75 -10 28 -5 24 -1 -20 16 -30 12 -59 25 -64 30
-15 14 32 11 94 -6 77 -20 73 -11 -7 16 l-68 24 45 5 c41 5 43 6 18 13 -50 13
-33 30 25 24 l52 -5 -45 10 c-74 16 -78 22 -20 28 l55 5 -48 8 c-64 11 -50 27
26 28 44 0 56 3 42 9 -11 5 -33 9 -48 9 -18 1 -27 6 -24 14 4 13 30 15 97 4
31 -5 40 -4 30 3 -8 5 -34 12 -57 16 -42 6 -51 13 -35 28 12 13 94 -3 141 -27z
m-549 -57 c-6 -12 -14 -19 -17 -17 -2 3 1 15 7 27 6 12 14 19 17 17 2 -3 -1
-15 -7 -27z m-480 0 c0 -5 -4 -10 -10 -10 -5 0 -10 5 -10 10 0 6 5 10 10 10 6
0 10 -4 10 -10z m-40 -20 c0 -5 7 -7 15 -4 8 4 15 1 15 -5 0 -6 -11 -10 -25
-9 -23 2 -37 28 -15 28 6 0 10 -4 10 -10z m2349 -7 c-53 -64 -130 -103 -274
-140 -47 -12 17 32 137 93 129 66 162 78 137 47z m431 -16 c0 -19 -53 -98 -86
-129 -16 -15 -50 -36 -77 -48 -82 -36 -284 -66 -275 -40 7 19 143 152 172 168
41 21 192 61 234 62 20 0 32 -5 32 -13z m-2276 -18 c-3 -5 -10 -7 -15 -3 -5 3
-7 10 -3 15 3 5 10 7 15 3 5 -3 7 -10 3 -15z m-559 -9 c3 -5 1 -10 -4 -10 -6
0 -11 5 -11 10 0 6 2 10 4 10 3 0 8 -4 11 -10z m1254 -56 c-27 -28 -37 -42
-24 -38 28 10 -31 -53 -67 -72 -33 -17 -33 -18 -8 30 24 48 44 71 94 108 55
40 58 26 5 -28z m-758 -104 c-22 -63 -40 -106 -40 -95 -2 26 73 244 77 225 1
-8 -15 -67 -37 -130z m1979 116 c0 -22 -74 -111 -112 -134 -38 -23 -128 -42
-202 -42 l-50 0 39 40 c64 65 110 91 213 121 116 33 112 33 112 15z m-2506
-28 c-6 -21 -27 -48 -37 -48 -3 0 3 16 11 35 18 38 38 48 26 13z m1170 -15
c-9 -21 -36 -90 -61 -153 -25 -63 -50 -119 -55 -125 -8 -7 -9 -5 -6 5 3 8 13
42 23 75 20 72 94 235 107 235 4 0 1 -17 -8 -37z m-1143 4 c-6 -8 -8 -17 -4
-20 3 -4 1 -7 -5 -7 -14 0 -14 2 -6 24 3 9 11 16 16 16 7 0 6 -5 -1 -13z m563
-48 c-3 -5 -10 -7 -15 -3 -5 3 -7 10 -3 15 3 5 10 7 15 3 5 -3 7 -10 3 -15z
m1571 -29 c-44 -46 -135 -97 -205 -115 -104 -27 -294 -54 -278 -40 29 26 352
158 443 180 64 16 73 10 40 -25z m-1170 -16 c69 -23 82 -38 25 -30 -40 5 -42
4 -13 -4 38 -12 53 -30 25 -30 -56 0 -191 59 -139 60 6 1 -1 7 -18 16 -30 14
-30 14 20 9 28 -3 73 -12 100 -21z m-1035 6 c0 -5 -4 -10 -10 -10 -5 0 -10 5
-10 10 0 6 5 10 10 10 6 0 10 -4 10 -10z m1243 -30 c-23 -22 -48 -40 -55 -40
-7 1 7 19 32 40 59 52 78 51 23 0z m-618 9 c4 -5 18 -14 31 -19 13 -5 24 -14
24 -19 0 -12 -32 -2 -43 13 -4 7 -9 2 -13 -11 -9 -32 -28 -29 -20 3 5 17 3 23
-4 19 -5 -3 -10 1 -10 9 0 18 25 22 35 5z m265 1 c0 -5 -7 -10 -15 -10 -8 0
-15 5 -15 10 0 6 7 10 15 10 8 0 15 -4 15 -10z m-900 -10 c0 -5 -4 -10 -10
-10 -5 0 -10 5 -10 10 0 6 5 10 10 10 6 0 10 -4 10 -10z m2930 -8 c0 -26 -48
-89 -104 -139 -56 -50 -139 -82 -161 -63 -12 10 -15 9 -15 -4 0 -19 -31 -21
-48 -4 -9 9 -12 9 -12 0 0 -7 -8 -12 -17 -12 -14 0 -15 2 -4 9 11 7 11 9 0 13
-9 3 0 14 23 29 21 13 45 39 54 58 42 88 113 127 237 130 39 1 47 -2 47 -17z
m-2900 -2 c0 -5 -4 -10 -10 -10 -5 0 -10 5 -10 10 0 6 5 10 10 10 6 0 10 -4
10 -10z m930 -10 l35 -19 -30 -1 c-30 0 -55 15 -55 32 0 12 11 9 50 -12z m272
-41 c-18 -16 -38 -29 -45 -29 -6 1 6 16 27 35 22 19 42 32 45 29 3 -3 -9 -19
-27 -35z m1412 33 c9 -15 -28 -74 -72 -112 -79 -70 -137 -92 -261 -98 -122 -5
-169 6 -116 29 17 8 55 37 85 66 61 59 132 99 200 112 58 11 157 13 164 3z
m-2624 -12 c0 -5 -4 -10 -10 -10 -5 0 -10 5 -10 10 0 6 5 10 10 10 6 0 10 -4
10 -10z m925 -10 c36 -17 38 -19 14 -19 -15 -1 -37 8 -50 19 -30 24 -16 24 36
0z m-338 -5 c8 -9 13 -19 10 -22 -6 -5 -37 21 -37 31 0 10 11 6 27 -9z m72 1
c15 -8 33 -22 40 -30 11 -13 11 -16 -2 -16 -9 0 -17 -6 -19 -14 -3 -13 -6 -13
-22 0 -17 12 -18 14 -3 14 24 0 21 7 -10 35 -32 28 -25 32 16 11z m56 3 c4 -6
5 -12 2 -15 -7 -7 -37 7 -37 17 0 13 27 11 35 -2z m1575 -6 c0 -23 -81 -98
-139 -127 -46 -24 -108 -37 -228 -51 -29 -3 -53 -2 -53 3 0 14 113 118 149
136 47 25 168 55 224 55 37 1 47 -2 47 -16z m-2340 -13 c-6 -11 -13 -20 -15
-20 -3 0 -5 9 -5 20 0 11 7 20 15 20 13 0 14 -4 5 -20z m1105 10 c4 -6 -5 -10
-19 -10 -14 0 -26 5 -26 10 0 6 9 10 19 10 11 0 23 -4 26 -10z m-430 -19 c3
-5 1 -12 -5 -16 -5 -3 -10 1 -10 9 0 18 6 21 15 7z m290 -3 c35 -16 31 -29 -5
-17 -16 6 -30 15 -30 20 0 12 4 11 35 -3z m132 -14 c2 -7 -6 -10 -22 -7 -14 3
-25 10 -25 15 0 13 43 6 47 -8z m158 -4 c-3 -5 -11 -10 -16 -10 -6 0 -7 5 -4
10 3 6 11 10 16 10 6 0 7 -4 4 -10z m-315 -16 c0 -8 -4 -12 -10 -9 -5 3 -10
10 -10 16 0 5 5 9 10 9 6 0 10 -7 10 -16z m-280 -4 c0 -5 -5 -10 -11 -10 -5 0
-7 5 -4 10 3 6 8 10 11 10 2 0 4 -4 4 -10z m315 0 c3 -5 1 -10 -4 -10 -6 0
-11 5 -11 10 0 6 2 10 4 10 3 0 8 -4 11 -10z m-185 -10 c0 -5 -4 -10 -10 -10
-5 0 -10 5 -10 10 0 6 5 10 10 10 6 0 10 -4 10 -10z m1180 -3 c0 -17 -46 -60
-85 -80 -28 -14 -129 -37 -164 -37 -20 0 53 76 94 98 55 29 155 41 155 19z
m-2010 -22 c0 -8 -4 -15 -10 -15 -5 0 -7 7 -4 15 4 8 8 15 10 15 2 0 4 -7 4
-15z m690 5 c0 -5 -5 -10 -11 -10 -5 0 -7 5 -4 10 3 6 8 10 11 10 2 0 4 -4 4
-10z m130 -10 c0 -5 -4 -10 -10 -10 -5 0 -10 5 -10 10 0 6 5 10 10 10 6 0 10
-4 10 -10z m970 -9 c0 -18 -76 -75 -135 -102 -60 -27 -333 -95 -343 -85 -7 8
36 41 98 75 66 35 171 74 272 101 82 21 108 24 108 11z m1140 -48 c-1 -20 -29
-43 -44 -37 -23 9 -15 27 15 35 13 4 25 7 27 8 1 1 2 -2 2 -6z m-750 -52 c0
-29 -74 -117 -123 -145 -49 -29 -134 -52 -229 -61 -73 -7 -93 7 -40 26 15 6
45 34 67 61 81 103 145 137 258 138 59 0 67 -2 67 -19z m316 -5 c15 -38 -69
-128 -156 -169 -58 -27 -160 -36 -160 -13 0 6 -5 3 -11 -6 -13 -23 -54 -25
-45 -2 4 12 2 15 -9 11 -8 -4 -17 -2 -20 4 -4 5 1 12 9 15 16 6 77 87 89 117
3 9 15 17 25 17 10 0 22 4 28 9 27 27 241 41 250 17z m232 -6 c7 -41 -98 -150
-132 -137 -8 3 -13 -1 -12 -10 0 -9 -5 -18 -13 -21 -8 -3 -11 0 -7 7 5 7 -6
11 -33 11 -25 0 -41 -5 -41 -12 0 -6 -3 -9 -6 -6 -3 4 0 17 7 30 11 22 11 22
-7 7 -60 -50 -43 -14 30 65 20 21 36 42 36 46 0 7 16 14 70 31 42 12 104 6
108 -11z m-838 -4 c0 -22 -88 -114 -134 -141 -74 -43 -256 -82 -279 -59 -11
11 104 141 145 164 57 32 122 48 201 49 51 1 67 -2 67 -13z m-590 -40 c0 -2
-37 -28 -82 -57 -60 -38 -104 -58 -158 -71 -86 -21 -90 -21 -90 -10 0 19 117
87 193 113 73 24 137 36 137 25z m-1463 -123 c-30 -54 -69 -127 -87 -163 -18
-36 -35 -59 -38 -52 -8 24 162 331 175 318 3 -3 -19 -49 -50 -103z m1693 90
c0 -9 -24 -40 -52 -68 -46 -46 -64 -56 -139 -79 -48 -14 -97 -26 -109 -26 -22
0 -22 0 -4 28 10 15 24 39 32 55 16 32 72 63 157 88 79 23 115 24 115 2z
m-580 -84 c-46 -39 -74 -54 -137 -72 -101 -30 -43 23 85 79 42 18 79 31 82 28
2 -3 -11 -19 -30 -35z m280 6 c0 -37 -75 -110 -129 -125 -89 -24 -88 10 2 82
47 37 99 67 120 68 4 0 7 -11 7 -25z m1760 -15 c10 -7 11 -12 4 -17 -41 -29
-85 -54 -124 -68 -25 -10 -59 -23 -77 -31 -23 -10 -38 -11 -58 -4 -33 12 -29
25 18 63 64 53 196 84 237 57z m-3253 -36 c-3 -3 -12 -4 -19 -1 -8 3 -5 6 6 6
11 1 17 -2 13 -5z m1002 -10 c-18 -22 -124 -74 -151 -74 l-23 0 25 21 c33 27
120 69 144 69 16 0 16 -2 5 -16z m311 6 c0 -24 -64 -80 -108 -94 -114 -36
-136 -29 -88 25 28 33 57 48 116 65 56 15 80 17 80 4z m655 -10 c13 -22 -8
-71 -51 -119 -46 -52 -148 -111 -190 -111 -13 0 -26 -4 -29 -10 -9 -15 -71
-12 -87 3 -7 8 -20 11 -28 9 -19 -7 -11 4 85 111 64 71 74 79 135 96 112 33
154 38 165 21z m303 -32 c2 -20 -8 -38 -44 -77 -72 -78 -166 -118 -260 -113
l-62 4 14 26 c8 15 14 33 14 40 0 6 4 12 8 12 5 0 21 18 38 41 16 22 52 53 79
70 46 27 57 29 130 27 78 -3 80 -4 83 -30z m-2258 18 c0 -2 -18 -41 -39 -87
-29 -61 -40 -77 -40 -58 -1 29 55 149 70 149 5 0 9 -2 9 -4z m2514 -2 c23 -9
20 -28 -11 -64 -34 -41 -100 -82 -130 -82 -13 0 -23 -3 -23 -7 0 -3 -15 -5
-32 -4 -18 1 -43 2 -55 2 -19 1 -21 4 -13 32 19 64 60 104 123 119 40 10 120
12 141 4z m-2578 -56 c-13 -29 -28 -64 -34 -78 -10 -24 -11 -24 -11 10 -1 44
33 120 53 120 12 0 11 -9 -8 -52z m1717 46 c23 -23 -74 -136 -138 -158 -66
-24 -125 -29 -131 -11 -8 19 38 98 69 118 48 32 184 66 200 51z m-851 -19 c0
-13 -169 -98 -184 -93 -17 6 69 68 125 90 44 18 58 19 59 3z m-910 -13 c-43
-34 -61 -72 -56 -122 3 -33 2 -40 -5 -25 -8 17 -10 15 -10 -13 -1 -34 -21 -36
-21 -2 0 10 -5 22 -11 26 -8 5 -10 -11 -7 -55 5 -73 -6 -80 -22 -13 -9 41 -9
55 6 90 18 45 105 132 133 132 12 0 11 -4 -7 -18z m1198 9 c0 -5 -17 -24 -38
-43 -29 -27 -59 -40 -123 -57 -46 -12 -95 -26 -108 -32 -13 -5 -25 -8 -27 -6
-7 7 40 70 66 89 45 32 230 72 230 49z m1781 -29 c-26 -49 -48 -57 -156 -57
-108 0 -129 10 -45 21 28 4 50 10 50 15 0 5 15 9 33 9 17 1 46 7 62 15 45 20
68 19 56 -3z m-2994 -62 c-8 -36 -16 -57 -19 -48 -6 15 7 92 18 110 13 20 13
-1 1 -62z m1510 45 c5 -15 -55 -83 -88 -101 -28 -14 -242 -64 -275 -64 -8 0
-14 6 -14 14 0 8 -5 16 -11 18 -20 7 33 59 90 87 56 29 135 48 221 54 61 5 73
4 77 -8z m-607 -28 c0 -29 -51 -116 -90 -155 -17 -17 -63 -47 -103 -67 -70
-34 -191 -64 -205 -50 -4 3 43 55 103 114 89 87 126 115 194 149 45 23 87 39
92 36 5 -3 9 -15 9 -27z m-241 -57 c-43 -80 -105 -142 -245 -242 -64 -45 -137
-107 -163 -137 -75 -87 -125 -134 -185 -170 -104 -62 -113 -44 -40 79 44 74
44 74 9 33 -35 -41 -37 -42 -83 -36 -26 3 -49 7 -50 9 -2 1 14 29 37 62 40 59
130 136 203 173 77 39 76 26 -8 -81 l-67 -85 54 51 c30 28 108 87 174 131 66
44 145 101 175 127 61 53 196 146 211 146 6 0 -4 -27 -22 -60z m436 -12 c-10
-49 -65 -136 -107 -169 -99 -79 -219 -96 -341 -47 l-29 11 44 17 c44 17 149
84 226 145 42 34 144 73 190 74 21 1 23 -2 17 -31z m1780 21 c16 -26 -141
-105 -228 -115 l-62 -7 45 43 c25 24 68 54 95 67 53 24 139 31 150 12z m-2431
-90 c-40 -43 -169 -133 -205 -144 -58 -19 -19 32 76 100 69 49 157 97 164 90
2 -3 -13 -24 -35 -46z m2105 -15 c-75 -78 -123 -104 -193 -103 -60 0 -61 0
-37 17 35 25 265 141 270 136 3 -2 -15 -25 -40 -50z m-939 19 c0 -25 -38 -77
-76 -102 -47 -32 -234 -56 -249 -31 -7 12 37 100 61 121 26 23 45 27 162 28
89 1 102 -1 102 -16z m-1743 -30 c-3 -10 -5 -4 -5 12 0 17 2 24 5 18 2 -7 2
-21 0 -30z m1428 26 c11 -17 -2 -51 -43 -115 -83 -128 -265 -175 -420 -108
-33 14 -35 17 -17 24 11 4 47 18 80 30 33 13 90 44 126 70 87 62 102 70 174
91 71 21 92 23 100 8z m630 -9 c10 -17 -43 -99 -75 -115 -17 -9 -30 -11 -30
-5 0 5 -15 10 -33 10 -21 0 -39 8 -50 21 -17 19 -17 23 -3 45 26 38 173 72
191 44z m-221 -9 c7 -10 -31 -61 -46 -61 -6 0 -7 11 -3 27 9 36 36 55 49 34z
m446 -11 c0 -21 -51 -85 -82 -101 -15 -8 -23 -7 -33 8 -8 10 -26 18 -43 18
-23 0 -28 -3 -20 -13 18 -21 2 -24 -23 -3 -20 16 -21 21 -10 35 7 9 20 16 28
16 9 0 13 6 9 15 -3 9 0 15 9 15 8 0 15 4 15 9 0 12 30 18 98 20 45 1 52 -1
52 -19z m-220 -100 c0 -5 -4 -10 -10 -10 -5 0 -10 5 -10 10 0 6 5 10 10 10 6
0 10 -4 10 -10z m1405 -51 c-7 -31 -50 -89 -67 -89 -5 0 2 14 16 31 18 21 26
42 26 68 0 21 3 41 7 45 13 12 25 -24 18 -55z m24 -21 c-12 -45 -84 -128 -110
-128 -8 1 3 15 24 32 45 36 77 94 77 140 1 27 2 30 11 16 7 -12 6 -31 -2 -60z
m-2705 38 c63 -19 86 -41 86 -83 0 -53 -36 -83 -102 -84 -29 -1 -65 -3 -79 -4
l-26 -4 5 73 c3 48 1 76 -7 80 -6 4 -11 14 -11 22 0 19 71 19 134 0z m982 -1
c12 -30 -66 -136 -104 -140 -9 -1 -30 -8 -46 -14 -17 -7 -51 -11 -78 -9 l-48
3 36 77 c21 43 46 80 58 86 11 6 56 11 99 11 60 1 79 -2 83 -14z m734 5 c0
-15 -85 -73 -166 -115 -78 -40 -108 -43 -74 -8 11 12 20 26 20 30 1 22 58 69
104 85 56 19 116 24 116 8z m1030 -29 c0 -47 -48 -124 -99 -158 -19 -13 -36
-22 -37 -20 -2 2 20 28 50 59 41 42 56 67 67 106 7 29 14 52 16 52 2 0 3 -17
3 -39z m-2020 -1 c0 -47 -44 -123 -97 -170 -74 -65 -187 -114 -375 -161 -218
-56 -230 -48 -75 47 51 31 128 91 172 134 87 84 129 109 250 151 108 38 125
37 125 -1z m-866 -2 c37 -52 7 -138 -62 -179 -20 -12 -60 -44 -89 -71 -28 -26
-58 -48 -66 -48 -8 0 -20 -7 -27 -15 -11 -14 -14 -13 -25 2 -25 35 -35 95 -24
136 13 48 85 123 160 166 65 37 111 40 133 9z m1262 1 c10 -17 -30 -64 -59
-67 -15 -2 -27 1 -27 7 0 6 -7 8 -15 5 -19 -8 -21 36 -3 54 15 15 94 16 104 1z
m1495 -17 c-6 -11 -18 -22 -26 -26 -12 -4 -10 2 7 23 26 32 35 33 19 3z
m-2431 -40 c19 -9 39 -27 45 -39 10 -19 12 -20 22 -5 10 15 12 13 13 -13 1
-28 2 -29 10 -7 10 24 30 30 30 10 0 -7 -12 -31 -26 -53 -24 -37 -25 -38 -19
-11 l6 30 -21 -25 -21 -24 6 25 c5 25 5 25 -6 3 -13 -24 -29 -31 -29 -12 0 8
-6 7 -17 -2 -15 -13 -16 -11 -10 16 6 24 5 26 -3 13 -6 -10 -15 -18 -20 -18
-5 0 -7 8 -3 18 5 14 3 15 -8 5 -20 -19 -31 -15 -19 6 13 26 13 44 -1 35 -7
-4 -10 -1 -7 7 3 8 11 13 17 12 6 -2 11 8 11 22 0 29 4 30 50 7z m2148 -1 c57
-29 132 -100 174 -165 21 -33 36 -61 34 -64 -3 -2 -38 22 -78 55 -40 32 -102
81 -138 108 -85 63 -91 69 -60 60 34 -10 127 -70 170 -109 l35 -31 -30 34
c-17 18 -56 51 -87 72 -81 56 -92 77 -20 40z m-927 -28 c-5 -10 -28 -37 -51
-61 -32 -33 -45 -41 -54 -32 -8 8 -5 16 14 30 14 10 40 32 59 49 40 36 46 38
32 14z m765 -10 c-8 -8 -36 5 -36 17 0 7 6 7 21 0 11 -7 18 -14 15 -17z m-50
2 c10 -8 14 -15 7 -15 -19 0 -43 11 -43 21 0 13 14 11 36 -6z m-66 -12 c0 -5
27 -8 59 -8 33 0 63 3 67 8 20 20 84 -18 84 -50 0 -7 4 -13 10 -13 11 0 120
-217 120 -238 0 -8 -27 10 -61 40 -95 83 -164 133 -239 172 -39 21 -70 41 -70
46 0 5 -12 8 -26 7 -15 -1 -29 4 -31 11 -3 7 1 10 10 6 8 -3 18 0 22 5 3 6 10
9 15 6 5 -3 11 -1 15 5 7 12 25 14 25 3z m-1720 -12 c0 -5 -6 -14 -14 -20 -12
-10 -13 -8 -9 8 5 21 23 30 23 12z m2043 -80 c76 -71 164 -251 193 -393 46
-225 -38 -471 -211 -624 -86 -76 -129 -104 -200 -131 l-60 -22 48 6 c28 3 47
2 47 -4 0 -16 -288 -216 -370 -258 -69 -34 -218 -92 -283 -109 -57 -15 -103
-12 -76 5 11 6 10 9 -4 15 -21 8 -22 24 -1 24 8 0 30 14 47 30 64 61 73 68
132 104 33 21 110 64 170 97 129 71 199 135 286 262 54 78 63 87 91 87 74 0
163 72 221 177 93 172 71 423 -59 686 -62 124 -59 130 29 48z m-1509 43 c23
-9 20 -29 -10 -74 -16 -24 -45 -48 -73 -62 -40 -20 -61 -23 -168 -23 -154 0
-167 9 -85 59 118 72 172 90 309 105 6 0 18 -2 27 -5z m420 -30 c10 -25 -1
-29 -14 -5 -6 12 -7 21 -1 21 5 0 12 -7 15 -16z m711 -4 c3 -5 1 -10 -4 -10
-6 0 -11 5 -11 10 0 6 2 10 4 10 3 0 8 -4 11 -10z m-65 -10 c0 -5 -4 -10 -10
-10 -5 0 -10 5 -10 10 0 6 5 10 10 10 6 0 10 -4 10 -10z m-3132 -18 c6 -18
-15 -14 -22 4 -4 10 -1 14 6 12 6 -2 14 -10 16 -16z m2466 9 c3 -5 -1 -14 -9
-21 -12 -10 -18 -10 -30 0 -18 15 -11 30 15 30 10 0 21 -4 24 -9z m696 5 c0
-3 -4 -8 -10 -11 -5 -3 -10 -1 -10 4 0 6 5 11 10 11 6 0 10 -2 10 -4z m-3200
-16 c0 -5 -4 -10 -10 -10 -5 0 -10 5 -10 10 0 6 5 10 10 10 6 0 10 -4 10 -10z
m534 4 c23 -9 19 -50 -10 -103 -17 -31 -59 -73 -131 -131 -57 -47 -110 -91
-116 -99 -7 -8 39 26 101 75 62 49 118 89 125 89 15 0 53 -106 45 -126 -3 -9
-50 -42 -104 -74 l-97 -58 -76 2 c-41 1 -78 4 -80 7 -3 2 11 18 30 35 l34 30
-45 -31 c-47 -33 -109 -39 -118 -12 -2 8 31 46 74 85 44 40 136 127 205 195
70 67 131 122 137 122 6 0 17 -3 26 -6z m724 -45 c49 -91 7 -198 -97 -251 -65
-33 -118 -36 -178 -8 -53 24 -59 47 -7 25 71 -29 168 -13 222 38 53 50 67 139
31 208 -29 57 -2 46 29 -12z m2002 32 c8 -10 44 -7 53 4 6 6 10 6 14 -2 2 -7
13 -13 24 -13 11 0 19 -7 19 -17 0 -14 2 -15 9 -5 6 10 14 8 36 -10 55 -44
205 -192 205 -201 0 -4 7 -15 15 -23 22 -22 45 -110 45 -171 0 -61 -27 -193
-40 -193 -4 0 -11 12 -15 28 -3 15 -29 74 -57 131 -81 163 -171 250 -362 346
-103 51 -128 75 -82 75 14 0 26 -5 26 -11 0 -5 4 -8 10 -4 5 3 7 12 3 20 -3
10 1 15 13 15 17 0 16 1 -2 16 -18 14 -17 15 21 10 22 -3 34 -3 28 0 -23 10
-14 26 10 18 12 -4 24 -9 27 -13z m-3280 -11 c7 -13 7 -20 1 -20 -6 0 -15 9
-21 20 -7 13 -7 20 -1 20 6 0 15 -9 21 -20z m813 -33 c25 -78 22 -99 -19 -140
-43 -43 -94 -68 -149 -75 -36 -4 -45 -1 -63 23 -33 41 -30 97 6 121 52 35 197
123 203 124 3 0 13 -24 22 -53z m-833 6 c0 -13 -3 -13 -15 -3 -8 7 -15 19 -15
27 0 13 3 13 15 3 8 -7 15 -19 15 -27z m2490 22 c0 -8 -7 -15 -15 -15 -16 0
-20 12 -8 23 11 12 23 8 23 -8z m653 -15 c-3 -11 -9 -20 -14 -20 -10 0 -12 24
-2 33 13 13 21 7 16 -13z m-1963 -5 c11 -10 15 -25 12 -41 -4 -20 -9 -24 -26
-20 -11 3 -29 6 -38 6 -10 0 -18 7 -18 16 0 12 -5 11 -20 -7 -17 -21 -19 -21
-20 -6 0 25 44 67 71 67 12 0 30 -7 39 -15z m2000 5 c0 -5 -4 -10 -10 -10 -5
0 -10 5 -10 10 0 6 5 10 10 10 6 0 10 -4 10 -10z m-3283 -21 c4 -16 11 -19 29
-15 31 8 31 -6 0 -20 -19 -9 -26 -7 -39 10 -15 18 -17 18 -17 2 0 -10 -4 -14
-12 -10 -7 5 -9 2 -5 -9 3 -8 -1 -21 -9 -27 -11 -10 -14 -9 -14 8 0 11 -3 27
-6 36 -4 10 2 17 20 22 14 3 26 10 26 15 0 18 22 8 27 -12z m3233 -23 c0 -2
-11 -1 -25 2 -23 4 -33 21 -19 35 5 5 44 -27 44 -37z m-683 18 c-3 -3 -12 -4
-19 -1 -8 3 -5 6 6 6 11 1 17 -2 13 -5z m-67 -8 c0 -3 -4 -8 -10 -11 -5 -3
-10 -1 -10 4 0 6 5 11 10 11 6 0 10 -2 10 -4z m1488 -136 c19 -30 35 -65 34
-78 -1 -13 7 -43 18 -67 12 -27 22 -80 28 -144 4 -55 6 -101 5 -101 -9 0 -38
78 -78 209 -25 84 -62 186 -81 228 -18 41 -34 78 -34 82 1 11 72 -73 108 -129z
m-2229 82 c19 -35 -49 -137 -109 -162 -25 -10 -36 -10 -70 4 -22 9 -65 19 -95
22 -30 4 -55 10 -55 13 0 13 65 69 100 87 41 21 154 52 192 53 17 1 31 -6 37
-17z m401 0 c0 -42 -85 -133 -160 -172 -60 -31 -190 -46 -262 -31 -32 7 -58
15 -58 19 0 4 13 19 28 34 15 15 43 58 61 96 l34 69 178 -1 c140 -1 179 -4
179 -14z m78 -64 c-30 -57 -95 -121 -155 -152 -26 -14 -43 -25 -38 -25 22 -1
112 59 155 103 25 25 51 46 58 46 42 0 -97 -125 -198 -179 l-58 -31 -184 0
c-115 0 -198 -4 -218 -12 -26 -9 -35 -9 -38 0 -2 7 -8 10 -13 6 -5 -3 -9 0 -9
6 0 6 21 21 47 32 44 20 52 20 126 8 52 -8 81 -9 86 -3 3 6 35 13 71 17 72 8
194 48 220 71 9 8 19 13 22 10 3 -4 37 28 74 69 38 42 70 76 71 76 2 0 -7 -19
-19 -42z m-2608 -63 c0 -5 -18 -11 -40 -13 -36 -2 -49 5 -35 20 9 9 75 3 75
-7z m1901 -36 c19 -7 41 -18 49 -26 37 -36 -129 -123 -234 -123 -64 0 -131 22
-266 88 -140 69 -133 82 18 32 126 -41 149 -40 277 14 66 28 105 32 156 15z
m2110 -105 c16 -17 29 -39 29 -48 0 -9 4 -16 10 -16 14 0 54 -84 78 -162 16
-55 18 -73 8 -102 -6 -20 -17 -36 -23 -36 -7 0 -13 -6 -13 -12 0 -15 -51 -58
-98 -82 -17 -9 -32 -15 -33 -14 0 2 -2 89 -3 193 -3 182 -14 258 -51 370 -4
13 7 5 30 -20 20 -22 50 -54 66 -71z m-2622 46 c25 -10 89 -39 141 -64 91 -44
99 -46 183 -46 92 0 105 -8 61 -37 -20 -13 -49 -17 -118 -18 -89 0 -93 1 -187
48 -101 50 -99 50 -369 74 -75 7 -81 18 -21 38 116 38 222 40 310 5z m-640
-85 c57 -7 107 -17 112 -22 5 -5 0 -23 -11 -41 -15 -25 -29 -33 -61 -38 -93
-15 -105 -81 -23 -131 17 -10 17 -12 3 -18 -33 -13 -100 15 -145 60 -50 50
-53 49 -22 -6 28 -50 17 -61 -23 -23 -57 54 -73 115 -48 181 19 50 40 66 79
58 19 -3 82 -12 139 -20z m371 18 c0 -5 -20 -39 -45 -77 -48 -73 -59 -112 -53
-176 l4 -40 -73 0 c-99 0 -133 19 -133 75 0 104 70 189 177 214 48 11 123 13
123 4z m73 -30 c25 -29 57 -111 59 -156 3 -39 1 -43 -32 -59 -19 -10 -62 -20
-94 -24 -51 -6 -61 -5 -72 11 -32 43 -3 149 59 213 35 36 57 40 80 15z m185 1
c55 -18 147 -82 147 -103 0 -14 -151 -75 -165 -66 -5 3 -11 1 -15 -5 -3 -5
-16 -10 -29 -10 -18 0 -28 13 -54 78 -18 43 -32 88 -32 100 0 20 5 22 49 22
27 0 71 -7 99 -16z m794 -74 c6 0 4 6 -6 13 -15 11 -4 13 68 12 47 0 86 -3 86
-6 0 -5 -33 -23 -75 -40 -69 -27 -139 -16 -179 30 -20 22 -9 30 13 9 10 -11
11 -9 5 5 -6 18 -4 17 34 -2 23 -12 47 -21 54 -21z m178 26 c0 -3 -4 -8 -10
-11 -5 -3 -10 -1 -10 4 0 6 5 11 10 11 6 0 10 -2 10 -4z m-324 -37 c27 -17 61
-43 77 -57 31 -29 37 -55 10 -45 -16 6 -17 5 -3 -12 14 -17 13 -18 -8 -12 -18
4 -22 2 -18 -9 6 -17 1 -18 -24 -4 -17 9 -18 8 -13 -7 7 -17 5 -16 -22 1 -25
16 -28 17 -16 3 18 -23 8 -32 -18 -17 -16 8 -21 8 -21 -1 0 -6 -6 -9 -14 -6
-7 3 -18 1 -24 -5 -6 -6 -12 -6 -17 2 -5 8 -11 8 -21 -1 -12 -10 -24 -4 -63
35 -64 63 -80 92 -60 111 21 22 118 53 165 54 28 1 54 -8 90 -30z m1654 -108
c11 -35 20 -73 20 -85 -1 -49 -31 -162 -60 -218 -16 -34 -30 -68 -30 -76 0 -9
-3 -12 -6 -9 -4 3 -19 -7 -34 -23 -16 -17 -33 -30 -40 -30 -6 0 -9 -4 -5 -9
11 -19 -17 -23 -31 -5 -13 17 -13 16 -4 -9 14 -40 13 -43 -10 -22 -20 18 -21
18 -14 0 6 -15 4 -17 -13 -13 -17 5 -20 2 -15 -16 5 -19 4 -19 -11 -7 -14 11
-18 11 -23 -3 -3 -9 -13 -16 -21 -16 -8 0 -12 4 -9 9 3 5 -15 6 -39 3 -59 -6
-58 7 5 53 55 40 132 122 153 163 8 15 29 52 46 82 45 80 83 204 84 278 1 63
1 63 19 40 10 -13 27 -52 38 -87z m-1902 0 c28 -44 52 -83 52 -86 0 -4 -9 -5
-20 -2 -12 3 -20 0 -20 -8 0 -15 -75 -45 -112 -45 -14 0 -28 -6 -31 -12 -4
-10 -7 -10 -18 0 -7 6 -19 12 -26 12 -21 0 -60 49 -79 98 -22 55 -13 65 87 97
110 35 107 36 167 -54z m2626 -66 c-1 -55 -6 -128 -13 -162 -15 -77 -78 -280
-90 -288 -5 -3 -3 16 5 42 21 70 9 63 -15 -9 -22 -66 -48 -115 -36 -68 3 14
21 84 40 156 18 71 41 177 49 235 9 57 20 105 26 107 5 2 10 31 10 65 1 53 2
59 13 42 7 -12 11 -59 11 -120z m-1509 114 c33 -6 73 -18 88 -26 42 -21 116
-91 146 -138 39 -61 62 -105 54 -105 -3 0 4 -11 17 -25 18 -19 20 -25 8 -25
-9 0 -21 7 -29 16 -8 9 -21 13 -35 10 -30 -8 -56 3 -50 20 4 10 -3 12 -27 7
-30 -6 -31 -5 -17 12 14 17 14 18 -7 6 -19 -10 -23 -9 -23 3 0 10 -6 13 -17 9
-13 -5 -15 -2 -10 11 4 10 3 15 -3 11 -6 -4 -17 0 -25 7 -79 71 -118 88 -221
97 -52 4 -97 11 -100 14 -9 9 14 44 44 65 55 40 114 48 207 31z m-1408 -51 c6
-7 16 -31 23 -53 7 -22 20 -56 30 -75 19 -41 16 -78 -5 -60 -10 8 -21 7 -44
-4 -37 -20 -36 -20 -55 0 -9 8 -16 11 -16 5 0 -6 -9 -11 -20 -11 -22 0 -62 54
-81 108 -15 42 -7 50 74 79 74 26 82 27 94 11z m-171 -129 c17 -44 28 -81 25
-82 -3 -2 -40 -3 -83 -3 -42 1 -74 -2 -71 -6 6 -11 -5 -10 -27 2 -23 12 -73
95 -68 111 4 12 136 56 173 58 16 0 26 -15 51 -80z m3115 -39 c-9 -23 -10 -21
-10 16 -1 23 2 57 7 75 7 32 7 32 10 -16 2 -28 -2 -62 -7 -75z m-3338 -2 c37
-59 42 -83 13 -59 -11 9 -15 9 -18 0 -3 -8 -11 -10 -24 -4 -10 4 -24 7 -31 6
-6 -1 -14 3 -18 9 -4 7 -12 7 -26 0 -11 -6 -25 -7 -32 -3 -6 4 -19 8 -27 10
-18 2 -49 43 -50 65 0 10 10 20 23 22 12 3 31 7 42 9 11 3 40 5 65 5 44 1 45
0 83 -60z m3198 -123 c-23 -132 -77 -272 -147 -382 -81 -126 -102 -144 -45
-37 23 43 36 71 29 60 -7 -10 -38 -53 -68 -95 -121 -171 -172 -209 -66 -50 91
137 99 149 93 149 -2 0 -16 -17 -29 -38 -14 -21 -63 -80 -108 -132 -46 -52
-85 -97 -87 -99 -1 -2 -3 0 -3 6 0 5 29 49 65 96 79 105 160 229 209 322 21
39 43 77 50 85 7 8 21 38 31 65 22 62 35 77 36 45 0 -18 6 -10 21 28 12 29 23
50 26 48 2 -3 -1 -35 -7 -71z m-1116 35 c3 -5 -1 -10 -9 -10 -9 0 -16 5 -16
10 0 6 4 10 9 10 6 0 13 -4 16 -10z m-888 -44 c51 -20 104 -36 117 -36 33 0
56 -25 56 -62 0 -27 -3 -30 -22 -24 -13 4 -51 11 -85 15 -34 5 -66 12 -73 16
-6 3 -18 -2 -28 -13 -9 -10 -37 -25 -61 -31 -24 -7 -53 -24 -65 -38 l-22 -25
-72 16 c-138 31 -282 15 -383 -45 -63 -37 -133 -91 -172 -133 l-28 -31 6 29
c24 112 213 279 359 318 46 12 48 13 20 18 -57 11 60 42 178 47 69 4 105 9
101 16 -12 19 81 0 174 -37z m194 -2 c144 -34 169 -47 169 -81 -1 -47 -22 -65
-67 -57 -21 4 -49 8 -63 8 -18 1 -30 10 -42 35 -21 42 -16 51 25 52 18 1 -8 7
-58 14 -92 14 -158 36 -171 56 -9 16 78 4 207 -27z m378 -69 c20 -19 4 -48
-28 -53 -27 -4 -27 13 1 32 22 15 20 16 -27 15 -28 -1 -40 -4 -27 -6 15 -3 22
-10 20 -21 -3 -14 -17 -18 -76 -20 l-73 -3 15 30 c13 25 21 29 48 27 18 -2 25
-1 16 1 -10 2 -18 9 -18 15 0 17 131 2 149 -17z m117 -21 c19 -9 39 -25 45
-36 15 -27 1 -113 -22 -141 l-18 -22 -1 30 c-1 50 -11 58 -69 50 -42 -6 -52
-4 -57 9 -10 26 5 67 36 97 33 34 40 35 86 13z m1149 -51 c-34 -81 -145 -252
-192 -294 -14 -13 -23 -17 -18 -9 11 21 -4 5 -107 -115 -149 -173 -197 -207
-87 -61 l61 81 -80 -85 c-45 -47 -81 -81 -82 -76 0 5 37 56 83 115 46 58 112
144 147 191 99 131 251 287 283 289 4 1 0 -16 -8 -36z m-1729 4 c18 -16 25
-30 21 -40 -5 -14 -21 -17 -82 -17 -41 0 -75 4 -75 10 0 5 -12 -2 -26 -15 -30
-28 -75 -33 -93 -11 -19 22 43 69 85 64 23 -3 35 1 43 14 17 28 92 24 127 -5z
m439 -34 c-11 -59 -19 -64 -103 -61 -69 3 -77 5 -95 31 -16 21 -18 30 -9 39
14 14 80 25 161 27 l53 1 -7 -37z m-277 17 c25 0 62 -32 62 -54 0 -29 -105
-45 -170 -27 -20 6 -24 13 -22 37 4 40 29 57 72 50 19 -3 45 -6 58 -6z m-1032
-27 c-40 -40 -203 -219 -235 -260 -45 -58 -71 -70 -46 -23 19 37 19 46 -1 29
-14 -12 -16 -11 -13 6 2 11 14 24 26 30 12 5 24 19 27 31 9 33 202 193 235
194 8 0 11 -3 7 -7z m482 -6 c48 -13 56 -28 20 -39 -13 -4 2 -5 32 -2 60 5 86
-5 77 -30 -7 -19 -138 -58 -272 -81 -172 -30 -287 -74 -377 -147 -35 -27 -46
-17 -23 19 l18 28 -27 -24 c-38 -35 -44 -18 -11 31 74 112 206 210 326 242 65
18 178 19 237 3z m-1637 -36 c74 -26 109 -43 109 -53 0 -12 -50 -9 -90 5 -53
19 -100 46 -100 57 0 15 20 12 81 -9z m992 2 c13 -13 -26 -43 -57 -44 -17 0
-25 -3 -18 -6 22 -9 13 -23 -15 -23 -42 0 -143 26 -156 40 -10 10 -4 11 23 7
73 -12 125 -16 101 -9 -30 9 -38 29 -14 35 29 7 129 8 136 0z m1010 -31 c17
-15 24 -42 10 -42 -5 1 -19 7 -33 15 -37 21 -62 18 -124 -14 -60 -32 -70 -28
-33 14 43 50 137 64 180 27z m451 -26 c56 -23 95 -91 59 -103 -6 -2 -29 12
-51 31 -36 33 -45 36 -103 37 -62 1 -63 1 -34 14 17 8 26 14 20 15 -5 0 -3 5
5 10 21 14 65 12 104 -4z m-542 -18 c-17 -17 -15 -48 5 -71 17 -18 17 -19 -5
-16 -13 2 -31 17 -40 32 -16 27 -16 29 7 48 26 21 53 27 33 7z m-1691 -27 c30
-10 75 -29 99 -42 l45 -24 -80 -3 c-44 -2 -90 0 -102 3 -29 7 -95 64 -87 76 9
15 67 10 125 -10z m622 8 c42 -11 45 -30 6 -40 -13 -4 -18 -7 -11 -8 6 -1 12
-5 12 -11 0 -26 -162 -2 -225 34 l-30 16 50 -5 c78 -9 122 -12 103 -8 -19 5
-23 15 -11 26 10 10 63 8 106 -4z m227 2 c0 -14 -122 -193 -127 -187 -10 9 19
69 64 134 40 56 63 76 63 53z m1180 5 c0 -3 -4 -8 -10 -11 -5 -3 -10 -1 -10 4
0 6 5 11 10 11 6 0 10 -2 10 -4z m182 -42 c21 -20 13 -41 -23 -59 -36 -19 -38
-19 -49 8 -6 14 -9 16 -9 6 -1 -24 -32 -46 -73 -54 l-38 -7 -2 48 c-1 47 -1
48 -5 9 -4 -38 -23 -76 -23 -45 0 11 -3 10 -12 -2 -19 -23 -78 -32 -78 -12 0
31 32 74 68 92 49 25 125 35 141 19 10 -9 11 -8 5 7 -7 18 -4 19 37 12 24 -4
51 -14 61 -22z m-372 7 c0 -20 -48 -75 -80 -92 -49 -27 -100 -24 -146 7 -39
26 -54 42 -54 57 0 18 29 4 60 -28 28 -29 41 -35 76 -35 46 0 89 28 113 74 14
25 31 35 31 17z m1416 -18 c-17 -34 -145 -186 -255 -303 -78 -84 -112 -100
-77 -37 14 24 8 20 -25 -18 -89 -101 -108 -120 -115 -113 -4 4 6 24 21 45 l28
38 -33 -30 c-59 -54 -27 -8 85 121 112 130 229 244 249 244 6 0 36 18 66 39
66 47 75 50 56 14z m-1951 -18 l-30 -14 43 -7 c23 -3 44 -10 47 -14 2 -4 -30
-13 -72 -20 -75 -12 -160 -32 -195 -45 -15 -6 -18 -2 -18 21 0 22 -3 25 -12
16 -7 -7 -19 -12 -27 -12 -23 0 12 33 38 35 10 1 25 6 33 12 18 15 135 41 183
41 l40 0 -30 -13z m268 -61 c70 -36 156 -36 245 0 l63 25 -3 -27 c-2 -21 -13
-32 -48 -49 -66 -32 -211 -58 -322 -58 -111 0 -130 9 -108 50 16 29 86 85 107
85 8 0 37 -12 66 -26z m-1573 -11 c51 -27 81 -56 69 -68 -3 -3 -39 -8 -80 -11
-72 -5 -75 -5 -136 32 -35 21 -63 43 -63 50 0 7 16 14 38 17 94 10 119 7 172
-20z m259 -8 c30 -17 53 -34 53 -40 -1 -6 -39 -10 -90 -10 -76 0 -94 4 -144
29 -88 44 -78 59 35 54 79 -3 100 -8 146 -33z m2051 26 c0 -15 -52 -52 -69
-49 -28 6 -23 28 11 43 39 17 58 19 58 6z m-953 -44 c15 -15 -18 -29 -81 -34
-36 -3 -66 -10 -66 -14 0 -5 -4 -9 -10 -9 -5 0 -10 6 -10 14 0 7 -10 17 -22
21 -20 6 -16 9 27 21 50 13 149 14 162 1z m843 7 c0 -21 -29 -49 -73 -70 -67
-31 -77 -30 -77 4 0 28 20 54 50 65 20 7 100 8 100 1z m-170 -39 c16 -19 -1
-63 -33 -86 -32 -23 -89 -41 -99 -31 -5 5 -8 33 -6 63 3 51 5 54 33 60 54 12
92 9 105 -6z m-916 -4 c3 -5 -1 -12 -10 -15 -20 -8 -29 -1 -19 13 8 13 22 14
29 2z m755 -58 c-1 -76 -7 -83 -92 -108 -42 -12 -77 -18 -77 -13 0 17 58 136
70 143 13 8 64 22 88 24 8 1 12 -14 11 -46z m-1662 1 c49 -25 58 -34 58 -57
-1 -24 5 -28 51 -42 61 -18 179 -93 179 -115 0 -12 -16 -15 -86 -14 -80 1 -93
4 -162 38 -42 21 -86 49 -99 63 l-23 25 32 -7 c24 -5 37 -2 49 9 14 15 11 16
-39 16 -64 0 -127 20 -174 56 -27 20 -32 29 -23 39 29 35 159 29 237 -11z
m170 21 c43 -18 103 -62 103 -76 0 -12 -105 -12 -150 1 -19 5 -55 28 -80 49
l-45 40 68 1 c39 0 83 -6 104 -15z m2567 1 c-8 -21 -256 -278 -262 -271 -3 2
1 13 9 22 13 17 13 17 -6 3 -11 -8 -30 -23 -42 -34 -39 -33 -36 -10 3 36 73
83 68 82 -20 -2 -100 -95 -102 -90 -9 22 65 79 235 233 209 191 -11 -20 -1
-16 46 17 46 32 81 39 72 16z m-2415 -20 c129 -44 185 -91 94 -80 -76 9 -105
21 -153 64 -53 47 -41 50 59 16z m831 -30 c13 -16 4 -20 -37 -19 -7 1 -13 -4
-13 -9 0 -6 -9 -8 -20 -5 -11 3 -20 2 -20 -2 0 -4 -26 -14 -57 -21 -52 -11
-58 -11 -70 6 -7 10 -13 21 -13 26 0 12 18 10 25 -3 5 -7 11 -5 18 5 17 21
138 56 158 45 9 -4 21 -15 29 -23z m380 28 c0 -3 -14 -32 -31 -64 -20 -38 -40
-62 -57 -69 -32 -11 -152 -20 -152 -11 0 11 54 83 78 103 33 30 162 62 162 41z
m962 -60 c-13 -23 -224 -205 -230 -199 -3 3 19 31 49 62 l54 57 -69 -62 c-38
-34 -73 -62 -78 -62 -18 0 23 59 74 105 80 73 138 104 124 69 -4 -9 9 -2 29
15 39 34 62 41 47 15z m-1271 -15 c-13 -11 -27 -17 -30 -13 -7 7 28 34 43 34
6 -1 0 -10 -13 -21z m-341 -9 c0 -5 -4 -10 -10 -10 -5 0 -10 5 -10 10 0 6 5
10 10 10 6 0 10 -4 10 -10z m-483 -42 c108 -65 109 -94 2 -85 -74 6 -128 30
-185 79 -32 29 -34 33 -18 40 11 4 48 6 83 3 50 -3 77 -12 118 -37z m783 32
c0 -5 -4 -10 -9 -10 -6 0 -13 5 -16 10 -3 6 1 10 9 10 9 0 16 -4 16 -10z
m-677 -16 c110 -25 224 -87 195 -106 -25 -15 -151 3 -193 28 -39 23 -105 79
-105 89 0 9 28 6 103 -11z m1703 -100 c-54 -49 -91 -73 -85 -55 5 15 111 100
124 100 6 0 -12 -20 -39 -45z m-1632 -53 c62 -30 105 -66 93 -77 -15 -15 -98
-15 -148 0 -56 16 -157 95 -142 110 17 18 134 -2 197 -33z m1636 26 c0 -2 -10
-12 -22 -23 l-23 -19 19 23 c18 21 26 27 26 19z m-1871 -37 c51 -26 123 -89
115 -101 -3 -5 -34 -9 -70 -9 -52 0 -76 6 -123 29 -60 31 -121 76 -121 91 0
26 142 19 199 -10z m444 -1 c26 -17 47 -35 47 -40 0 -5 -28 -9 -61 -9 -50 0
-71 6 -115 31 -30 17 -54 35 -54 40 0 5 31 9 68 9 60 0 75 -4 115 -31z m168
-5 c78 -35 80 -59 6 -51 -50 5 -134 48 -153 79 -12 19 83 1 147 -28z m-9 -101
c48 -32 71 -59 63 -72 -10 -17 -106 -12 -150 8 -44 20 -99 77 -89 93 11 18
136 -2 176 -29z m174 -3 c54 -23 114 -66 114 -81 0 -12 -121 -12 -154 1 -30
11 -116 88 -116 103 0 16 103 1 156 -23z m-400 -5 c63 -31 116 -80 112 -103
-3 -14 -16 -17 -78 -18 -74 -1 -130 16 -130 40 0 6 -17 27 -37 48 -42 43 -38
46 68 57 8 0 37 -10 65 -24z m692 -70 c63 -19 64 -39 2 -43 -56 -4 -90 5 -90
23 0 8 -4 15 -8 15 -5 0 -17 7 -28 16 -18 14 -16 15 26 10 25 -3 69 -12 98
-21z m-307 -60 c46 -30 51 -54 12 -57 -62 -3 -121 5 -165 24 -44 19 -63 38
-38 38 6 0 9 5 8 12 -8 35 124 23 183 -17z m184 8 c65 -21 170 -84 170 -103 0
-39 -181 -10 -223 35 -13 14 -27 25 -32 25 -14 0 -70 51 -65 60 7 11 91 1 150
-17z m-350 -73 c58 -40 73 -59 54 -71 -35 -24 -232 41 -214 70 3 5 1 12 -5 16
-16 10 -12 25 5 18 9 -3 15 -2 14 3 -1 5 -1 12 0 16 2 13 105 -24 146 -52z
m683 26 c61 -28 79 -51 45 -59 -11 -2 0 -9 27 -16 51 -15 120 -51 120 -63 0
-4 -36 -8 -80 -8 -70 0 -86 3 -125 28 -48 30 -49 41 -6 43 17 1 11 4 -18 10
-24 5 -74 23 -110 41 -55 26 -62 32 -42 36 19 3 21 6 10 14 -9 6 7 8 51 6 44
-3 85 -13 128 -32z m210 -23 c105 -27 107 -60 2 -48 -43 5 -66 14 -89 34 -52
47 -46 47 87 14z m-758 -22 c0 20 101 5 163 -24 51 -23 78 -49 64 -63 -26 -26
-186 -5 -194 26 -3 10 -23 26 -44 34 -21 9 -39 20 -39 26 0 6 9 6 25 0 17 -7
25 -6 25 1z m1006 -62 c26 -13 46 -28 43 -34 -2 -6 -53 -10 -121 -10 -108 0
-119 2 -140 22 l-22 22 35 16 c48 22 145 14 205 -16z m-526 -10 c83 -36 62
-57 -38 -39 -64 12 -132 45 -132 64 0 15 118 -2 170 -25z m749 -4 c76 -16 143
-44 145 -60 1 -6 -31 -11 -72 -13 -57 -2 -82 2 -120 19 -41 18 -44 22 -27 29
11 5 15 9 9 9 -5 1 -19 8 -30 16 -19 14 -19 14 3 15 12 0 53 -7 92 -15z m315
-31 c31 -12 16 -25 -21 -18 -58 10 -75 23 -31 24 20 0 43 -3 52 -6z m-732 -25
c21 -5 50 -21 65 -34 l28 -24 -27 -1 c-58 0 -218 47 -218 65 0 9 115 5 152 -6z
m342 -17 c27 -15 51 -33 54 -39 6 -21 -127 -16 -190 6 -29 11 -66 22 -82 26
-38 8 -22 23 29 28 107 10 140 7 189 -21z m344 -28 c12 -4 22 -13 22 -22 0
-13 -14 -14 -96 -9 -102 7 -110 9 -99 26 7 12 134 15 173 5z m-202 -65 c79
-33 67 -59 -30 -59 -58 0 -99 16 -149 59 -18 15 -18 16 0 23 27 10 132 -3 179
-23z m154 11 c12 -8 12 -10 -3 -16 -21 -8 -67 3 -67 16 0 13 50 13 70 0z
m-123 -132 c25 -24 29 -38 11 -38 -14 0 -58 40 -58 52 0 15 23 8 47 -14z m48
12 c3 -5 -3 -10 -14 -10 -12 0 -21 5 -21 10 0 6 6 10 14 10 8 0 18 -4 21 -10z
m-974 -34 c79 -18 171 -41 204 -50 118 -34 455 -149 472 -162 20 -14 16 -13
-282 79 -99 31 -261 77 -360 103 -174 45 -230 63 -194 64 9 0 81 -15 160 -34z
m-276 -36 c3 -5 -1 -10 -9 -10 -9 0 -16 5 -16 10 0 6 4 10 9 10 6 0 13 -4 16
-10z m58 3 c-7 -2 -19 -2 -25 0 -7 3 -2 5 12 5 14 0 19 -2 13 -5z m-103 -13
c0 -5 -4 -10 -10 -10 -5 0 -10 5 -10 10 0 6 5 10 10 10 6 0 10 -4 10 -10z
m279 -6 c10 -9 -10 -14 -95 -24 -49 -5 -113 -12 -141 -16 -68 -9 -71 10 -5 25
109 26 223 33 241 15z m89 -35 c-18 -10 -156 -39 -186 -39 -15 0 -15 2 -2 10
10 7 -6 8 -50 5 -95 -8 -41 13 64 24 121 13 195 13 174 0z m117 -18 c-12 -10
-217 -71 -241 -71 -8 0 -12 4 -9 10 4 6 -7 8 -27 5 l-33 -5 34 16 c68 31 302
70 276 45z m95 -30 c0 -9 -124 -37 -210 -47 -43 -5 -52 -4 -44 6 29 30 254 67
254 41z m55 -30 c-15 -14 -174 -51 -219 -51 -63 0 -31 16 74 38 105 22 159 27
145 13z m50 -30 c-13 -12 -125 -41 -161 -41 -43 0 -17 17 51 34 71 17 123 20
110 7z m50 -40 c-12 -11 -105 -31 -142 -31 -65 0 42 37 112 39 23 1 35 -3 30
-8z"/>
<path d="M11079 8463 c-13 -16 -12 -17 4 -4 9 7 17 15 17 17 0 8 -8 3 -21 -13z"/>
<path d="M10778 8373 c7 -3 16 -2 19 1 4 3 -2 6 -13 5 -11 0 -14 -3 -6 -6z"/>
<path d="M10695 8230 c11 -5 27 -9 35 -9 9 0 8 4 -5 9 -11 5 -27 9 -35 9 -9 0
-8 -4 5 -9z"/>
<path d="M11320 7366 c0 -2 8 -10 18 -17 15 -13 16 -12 3 4 -13 16 -21 21 -21
13z"/>
<path d="M9635 6229 c-4 -6 -5 -12 -2 -15 2 -3 7 2 10 11 7 17 1 20 -8 4z"/>
<path d="M10723 6053 c9 -2 23 -2 30 0 6 3 -1 5 -18 5 -16 0 -22 -2 -12 -5z"/>
<path d="M10058 5843 c6 -2 18 -2 25 0 6 3 1 5 -13 5 -14 0 -19 -2 -12 -5z"/>
<path d="M10008 5833 c6 -2 18 -2 25 0 6 3 1 5 -13 5 -14 0 -19 -2 -12 -5z"/>
<path d="M9888 5803 c7 -3 16 -2 19 1 4 3 -2 6 -13 5 -11 0 -14 -3 -6 -6z"/>
<path d="M9840 5790 c-8 -5 -10 -10 -5 -10 6 0 17 5 25 10 8 5 11 10 5 10 -5
0 -17 -5 -25 -10z"/>
<path d="M11040 8725 c19 -7 42 -13 50 -13 8 0 -1 6 -20 13 -19 7 -42 13 -50
13 -8 0 1 -6 20 -13z"/>
<path d="M8472 8670 c0 -14 2 -19 5 -12 2 6 2 18 0 25 -3 6 -5 1 -5 -13z"/>
<path d="M9410 8531 c0 -6 4 -13 10 -16 6 -3 7 1 4 9 -7 18 -14 21 -14 7z"/>
<path d="M8860 8270 c8 -5 22 -9 30 -9 10 0 8 3 -5 9 -27 12 -43 12 -25 0z"/>
<path d="M7661 7924 c0 -11 3 -14 6 -6 3 7 2 16 -1 19 -3 4 -6 -2 -5 -13z"/>
<path d="M7666 7843 c-6 -14 -5 -15 5 -6 7 7 10 15 7 18 -3 3 -9 -2 -12 -12z"/>
<path d="M7472 7817 c-18 -18 -32 -39 -32 -47 1 -10 4 -8 12 5 6 11 22 32 36
48 36 38 22 34 -16 -6z"/>
<path d="M7700 7810 c-6 -11 -8 -20 -6 -20 3 0 10 9 16 20 6 11 8 20 6 20 -3
0 -10 -9 -16 -20z"/>
<path d="M7730 7770 c-6 -11 -8 -20 -6 -20 3 0 10 9 16 20 6 11 8 20 6 20 -3
0 -10 -9 -16 -20z"/>
<path d="M7478 7734 c-21 -19 -34 -34 -30 -34 11 1 76 59 71 64 -2 2 -21 -11
-41 -30z"/>
<path d="M7431 7674 c0 -11 3 -14 6 -6 3 7 2 16 -1 19 -3 4 -6 -2 -5 -13z"/>
<path d="M8929 7503 c-13 -17 -13 -17 6 -3 11 8 22 16 24 17 2 2 0 3 -6 3 -6
0 -17 -8 -24 -17z"/>
<path d="M7972 7000 c-7 -11 -21 -20 -31 -20 -10 0 -24 -7 -31 -15 -11 -13 1
-15 101 -13 94 2 100 3 37 5 -43 2 -78 6 -78 9 0 3 5 14 11 26 14 26 7 33 -9
8z"/>
<path d="M8255 6890 c3 -5 8 -10 11 -10 2 0 4 5 4 10 0 6 -5 10 -11 10 -5 0
-7 -4 -4 -10z"/>
<path d="M8077 6855 c-5 -11 0 -15 16 -15 12 0 18 4 12 8 -5 4 -13 11 -16 15
-4 4 -9 1 -12 -8z"/>
<path d="M7870 6800 c-12 -8 -11 -10 8 -10 12 0 22 5 22 10 0 13 -11 13 -30 0z"/>
<path d="M7930 6661 c0 -6 5 -13 12 -17 6 -4 8 -3 4 4 -3 5 0 13 6 15 8 3 6 6
-4 6 -10 1 -18 -3 -18 -8z"/>
<path d="M7965 6631 c-3 -6 -2 -11 2 -11 8 0 12 -15 15 -57 1 -7 5 -13 10 -13
4 0 6 10 4 23 -3 12 -5 22 -6 22 -1 0 -3 8 -5 18 -5 25 -11 31 -20 18z"/>
<path d="M8173 6205 c0 -8 4 -15 9 -15 4 0 8 4 8 9 0 6 -4 12 -8 15 -5 3 -9
-1 -9 -9z"/>
<path d="M12632 5324 c-122 -32 -288 -111 -393 -186 -146 -103 -221 -175 -367
-350 -73 -88 -85 -97 -98 -77 -4 7 -26 9 -56 7 -37 -4 -56 -12 -76 -33 l-27
-28 30 21 c17 11 44 23 61 27 43 8 81 -25 139 -125 70 -122 70 -100 0 40 l-36
72 42 55 c137 177 313 339 475 436 82 49 212 104 314 132 47 13 76 24 65 24
-11 0 -44 -7 -73 -15z"/>
<path d="M12635 5146 c-79 -26 -236 -102 -310 -152 -59 -39 -195 -168 -195
-185 0 -7 28 15 63 47 89 86 267 204 307 204 11 0 20 3 20 8 0 9 49 32 71 32
9 0 24 -10 33 -22 16 -23 16 -23 6 -1 -15 32 -13 38 16 40 15 0 30 7 35 14 6
10 11 10 24 -1 14 -12 18 -12 26 1 11 18 6 33 -12 36 -8 1 -45 -8 -84 -21z"/>
<path d="M12530 5040 c0 -15 31 -33 40 -24 5 5 -1 14 -16 21 -13 6 -24 8 -24
3z"/>
<path d="M12660 5015 c-190 -65 -323 -150 -471 -302 -119 -122 -211 -243 -318
-416 -143 -231 -315 -455 -430 -559 -170 -152 -365 -242 -566 -259 -121 -10
-302 -2 -312 14 -4 7 33 8 113 4 325 -18 552 65 781 286 104 100 250 287 327
418 97 166 239 365 378 534 18 21 26 35 18 30 -29 -18 -150 -170 -232 -290
-33 -49 -66 -95 -72 -100 -6 -6 -17 -19 -23 -30 -187 -302 -229 -343 -312
-301 -15 8 -32 26 -39 40 -9 21 -18 26 -50 26 -47 0 -102 47 -102 88 0 25 -1
25 -17 10 -15 -16 -14 -20 21 -62 21 -26 42 -46 47 -46 33 0 -33 -76 -141
-163 l-35 -28 35 23 c19 12 73 56 118 97 l84 73 28 -34 c34 -41 79 -62 115
-56 14 3 27 2 30 -2 5 -8 -135 -179 -186 -226 -115 -107 -283 -202 -434 -245
-69 -20 -103 -23 -250 -23 -220 0 -352 27 -527 108 -142 65 -318 185 -318 217
0 21 31 44 73 55 15 3 53 29 84 58 l56 51 81 -44 c45 -24 78 -41 75 -37 -11
11 -179 115 -175 107 3 -4 -8 -26 -25 -49 -33 -45 -99 -82 -146 -82 -32 0 -59
-22 -48 -40 16 -26 -26 -4 -123 67 -248 178 -372 257 -515 329 -37 19 -72 32
-77 29 -4 -3 -10 0 -12 7 -7 20 -26 -1 -21 -22 3 -10 8 -19 12 -18 3 1 16 -1
28 -6 15 -5 20 -12 16 -24 -3 -9 -3 -14 1 -10 11 9 45 -23 40 -37 -4 -9 3 -11
20 -8 27 6 33 -4 16 -25 -7 -9 -7 -9 2 -2 20 17 41 12 33 -7 -5 -15 -4 -16 6
-5 17 16 29 15 29 -3 0 -9 6 -12 16 -8 14 5 16 2 10 -21 -7 -27 -6 -27 16 -12
29 21 52 21 44 1 -4 -11 0 -15 12 -13 11 2 17 -3 16 -14 -1 -12 5 -18 18 -18
13 0 18 -5 15 -13 -4 -10 5 -12 34 -10 21 2 39 -2 39 -7 0 -6 -10 -11 -22 -11
-17 -1 -19 -2 -5 -6 9 -2 17 -9 17 -14 0 -5 18 -9 40 -9 22 0 40 -4 40 -10 0
-5 -4 -10 -10 -10 -5 0 -10 -4 -10 -8 0 -4 17 -6 38 -4 35 4 36 4 21 -14 -19
-22 -14 -44 9 -44 25 1 131 -53 132 -67 0 -6 9 -9 20 -6 22 6 26 -7 9 -24 -9
-9 -6 -10 11 -6 19 5 22 3 17 -11 -6 -14 -3 -16 15 -10 16 5 20 3 15 -9 -4
-11 0 -13 15 -9 17 4 20 2 15 -11 -5 -13 -1 -17 19 -17 13 0 27 -7 30 -15 4
-8 10 -12 15 -9 5 3 9 -2 9 -10 0 -10 6 -13 17 -9 12 5 15 2 10 -10 -4 -11 -2
-14 7 -11 7 3 20 -2 29 -10 8 -8 17 -12 20 -9 3 3 13 -1 21 -8 37 -34 47 -40
55 -34 5 3 11 0 13 -5 2 -6 13 -12 26 -13 14 -1 22 -8 22 -20 0 -16 2 -17 15
-7 21 17 31 5 14 -17 -13 -16 -12 -17 3 -5 18 15 64 7 90 -15 9 -8 22 -13 30
-12 32 4 49 -1 42 -13 -6 -10 -5 -10 7 -1 12 10 18 9 29 -7 10 -14 17 -16 27
-8 10 8 13 7 13 -3 0 -11 2 -11 8 -1 14 21 62 -2 62 -30 1 -21 2 -20 15 7 l13
30 2 -30 1 -30 11 25 11 25 6 -25 7 -25 8 25 8 25 7 -25 7 -25 8 25 8 25 8
-25 c4 -14 8 -18 9 -9 1 12 17 16 81 17 49 2 80 -1 80 -8 0 -8 -71 -16 -102
-11 -4 0 -5 -6 -1 -15 3 -9 9 -11 12 -6 7 10 64 10 69 -1 2 -4 1 -13 -1 -20
-4 -9 -8 -9 -14 -1 -6 9 -11 8 -21 -2 -10 -12 -10 -14 3 -14 15 0 22 -19 8
-21 -31 -6 -63 -3 -63 4 0 4 -5 5 -11 2 -5 -4 -21 -8 -35 -10 -19 -2 -24 2
-24 20 0 24 -25 41 -35 25 -4 -6 1 -10 9 -10 9 0 16 -6 16 -14 0 -10 -10 -13
-37 -10 -21 2 -64 6 -95 9 -32 4 -58 10 -58 15 0 5 -7 7 -16 3 -14 -5 -16 -1
-12 18 2 14 -2 31 -10 38 -12 12 -13 9 -7 -18 3 -17 5 -31 2 -31 -2 0 -30 9
-63 21 -32 11 -67 20 -76 20 -10 0 -18 7 -18 14 0 9 -6 12 -15 9 -8 -4 -15 -1
-15 5 0 6 -7 8 -17 4 -12 -5 -15 -2 -11 8 4 10 -1 15 -12 15 -11 0 -16 -6 -12
-14 4 -11 -1 -13 -19 -7 -33 10 -34 12 -18 32 13 16 12 17 -3 5 -10 -8 -26
-11 -38 -7 -16 5 -18 10 -10 25 9 17 7 18 -23 9 -20 -6 -33 -5 -35 0 -2 6 -10
7 -18 4 -8 -3 -14 0 -14 6 0 6 -9 11 -21 11 -11 0 -18 4 -14 9 3 5 -2 16 -10
24 -8 9 -15 19 -15 24 0 16 -47 30 -65 20 -15 -8 -17 -6 -13 10 4 17 2 19 -15
15 -16 -4 -19 -2 -14 12 6 14 3 15 -13 6 -23 -13 -28 7 -7 29 10 11 8 11 -10
0 -30 -18 -40 -4 -17 23 10 13 12 17 4 11 -8 -7 -25 -13 -38 -13 -22 0 -23 2
-11 16 12 15 11 16 -9 10 -24 -8 -29 3 -9 23 10 10 7 10 -16 0 -32 -15 -45 -6
-26 17 13 16 12 16 -7 6 -25 -13 -39 -5 -23 14 8 9 5 11 -10 7 -16 -4 -21 -1
-21 13 0 14 -3 15 -12 6 -17 -17 -28 -15 -28 4 0 10 -6 14 -14 11 -20 -8 -28
4 -14 20 8 11 7 12 -6 7 -19 -7 -21 6 -3 26 6 8 3 7 -9 -3 -25 -21 -44 -22
-44 -2 0 9 -6 12 -16 8 -13 -5 -15 -2 -9 18 7 21 6 22 -9 10 -22 -18 -34 -5
-18 20 12 19 12 20 -13 3 -31 -20 -44 -11 -26 19 13 21 13 22 -6 5 -26 -24
-37 -23 -30 3 4 17 3 19 -6 10 -16 -16 -40 -14 -33 4 4 10 -1 15 -15 15 -13 0
-18 4 -13 13 5 9 4 9 -7 -1 -11 -10 -15 -8 -25 9 -10 19 -12 19 -17 5 -4 -10
-3 -15 1 -13 10 6 42 -30 34 -39 -4 -4 1 -4 11 -1 12 5 17 3 15 -5 -3 -7 30
-35 71 -63 42 -28 153 -108 247 -177 420 -310 616 -408 896 -449 93 -13 322
-13 413 0 284 41 554 197 752 435 82 98 97 120 346 496 151 228 258 370 279
370 5 0 -13 -28 -41 -62 -28 -35 -118 -164 -200 -288 -270 -407 -323 -480
-429 -592 -173 -179 -317 -273 -525 -342 -145 -48 -246 -60 -447 -53 -178 5
-259 21 -420 79 -189 68 -355 169 -720 436 -77 56 -148 105 -158 108 -13 5
-14 4 -4 -4 11 -7 8 -11 -10 -16 l-23 -7 23 -9 c12 -5 22 -16 22 -25 0 -9 12
-28 27 -42 15 -16 21 -29 15 -31 -17 -5 -15 -22 3 -22 13 0 20 -18 16 -42 0
-4 6 -5 14 -2 8 4 15 1 15 -5 0 -6 -5 -11 -11 -11 -5 0 -7 -5 -4 -11 4 -6 13
-8 21 -5 8 3 14 1 14 -4 0 -6 -7 -10 -15 -10 -9 0 -12 -6 -8 -17 5 -12 3 -14
-7 -8 -8 5 -11 4 -7 -3 4 -5 16 -8 27 -5 14 4 20 1 18 -8 -2 -8 3 -13 10 -11
8 1 11 -2 8 -7 -4 -5 3 -19 15 -30 12 -11 18 -24 14 -30 -3 -7 -3 -11 2 -10
21 5 63 -15 68 -32 4 -12 16 -19 30 -19 13 0 30 -8 37 -19 7 -10 22 -20 33
-22 11 -2 24 -14 30 -26 5 -13 16 -22 25 -20 19 3 67 -86 76 -140 9 -62 -2
-107 -37 -144 -38 -41 -31 -49 9 -9 17 16 33 30 36 30 3 0 6 -14 6 -31 0 -20
-10 -40 -29 -60 -36 -36 -29 -38 15 -4 l33 25 21 -30 c64 -90 98 -224 65 -260
-10 -11 -15 -20 -10 -20 4 0 2 -6 -4 -14 -9 -10 -8 -16 4 -26 13 -11 13 -14 1
-24 -13 -9 -13 -13 2 -26 9 -8 19 -15 22 -15 3 0 4 -6 4 -12 -1 -7 3 -13 9
-13 6 0 8 -3 4 -6 -3 -4 0 -13 8 -20 7 -8 16 -19 18 -26 4 -10 8 -10 15 1 7
10 9 5 7 -19 -1 -18 -8 -35 -14 -40 -9 -5 -6 -9 8 -13 12 -3 21 0 21 6 0 7 4
6 10 -3 5 -8 5 -19 0 -25 -6 -7 -2 -15 11 -23 11 -7 17 -17 14 -22 -3 -6 -1
-10 4 -10 6 0 10 -3 10 -7 -3 -20 2 -34 11 -28 6 4 7 -1 3 -11 -5 -14 -3 -16
11 -11 9 4 15 3 12 -2 -12 -18 135 -85 319 -145 139 -45 366 -57 558 -30 270
38 463 138 672 348 114 115 159 171 437 546 161 219 378 448 546 579 l42 33 0
103 c0 56 -3 116 -6 132 l-6 30 -81 -13 c-151 -25 -160 -15 -16 17 52 11 99
25 104 31 7 7 1 9 -20 5 -169 -30 -248 -39 -253 -30 -4 6 -18 13 -32 15 -14 1
46 18 133 37 87 19 160 38 163 43 4 5 -8 7 -28 4 -18 -3 -78 -13 -133 -21 -55
-9 -113 -18 -130 -22 -21 -4 -27 -2 -20 6 6 6 62 22 124 36 154 34 191 44 191
54 0 9 -10 8 -130 -14 -119 -22 -176 -28 -165 -18 6 5 46 17 90 27 160 34 220
50 202 54 -9 2 -59 -4 -110 -12 -108 -19 -234 -31 -226 -23 3 4 72 18 155 32
82 14 159 30 172 35 26 11 30 48 6 57 -10 3 -88 -2 -176 -12 -87 -9 -161 -15
-164 -13 -7 8 100 26 234 39 78 8 121 17 119 23 -2 6 -10 11 -18 10 -8 0 -50
-4 -94 -7 l-80 -7 -60 54 c-33 30 -57 57 -52 62 4 4 35 -12 70 -36 l62 -43
-59 61 c-33 34 -57 64 -53 68 3 4 37 -18 74 -47 l68 -54 -48 54 c-26 30 -46
56 -43 58 6 6 46 -15 76 -41 21 -18 21 -17 -4 14 -29 36 -23 50 14 30 20 -11
21 -10 15 10 -6 18 -4 20 19 14 20 -5 26 -2 26 10 0 19 5 20 32 5 18 -10 19
-8 13 12 -6 19 -4 21 13 17 15 -4 22 0 26 16 8 29 6 432 -2 482 l-7 41 -65
-22z m-145 -154 c-2 -2 -11 3 -19 12 -8 8 -12 17 -9 21 3 3 12 -2 19 -12 7 -9
11 -19 9 -21z m30 19 c3 -5 1 -10 -4 -10 -6 0 -11 5 -11 10 0 6 2 10 4 10 3 0
8 -4 11 -10z m-61 -26 c4 -10 1 -14 -6 -12 -15 5 -23 28 -10 28 5 0 13 -7 16
-16z m-58 -31 c-7 -7 -26 7 -26 19 0 6 6 6 15 -2 9 -7 13 -15 11 -17z m-21
-13 c10 -11 15 -23 11 -28 -4 -4 -13 1 -21 11 -8 11 -19 15 -31 10 -17 -6 -17
-5 -5 10 17 22 24 21 46 -3z m135 -59 c-14 -9 -60 -47 -103 -85 -91 -79 -116
-84 -30 -6 71 65 146 120 153 113 3 -3 -6 -13 -20 -22z m-211 -7 c3 -16 1 -17
-13 -5 -19 16 -21 34 -3 29 6 -3 14 -13 16 -24z m-39 -4 c0 -5 -4 -10 -10 -10
-5 0 -10 5 -10 10 0 6 5 10 10 10 6 0 10 -4 10 -10z m-20 -25 c0 -2 -10 -10
-22 -16 -21 -11 -22 -11 -9 4 13 16 31 23 31 12z m-20 -57 c0 -13 -23 -5 -28
10 -2 7 2 10 12 6 9 -3 16 -11 16 -16z m-25 -18 c3 -5 1 -10 -4 -10 -6 0 -11
5 -11 10 0 6 2 10 4 10 3 0 8 -4 11 -10z m-25 -15 c20 -24 6 -28 -15 -5 -10
11 -13 20 -8 20 6 0 16 -7 23 -15z m55 -5 c3 -5 1 -10 -4 -10 -6 0 -11 5 -11
10 0 6 2 10 4 10 3 0 8 -4 11 -10z m-68 -36 c-9 -9 -28 6 -21 18 4 6 10 6 17
-1 6 -6 8 -13 4 -17z m-32 -4 c27 -30 12 -34 -15 -5 -13 14 -19 25 -13 25 5 0
18 -9 28 -20z m-20 -30 c10 -11 14 -20 8 -20 -5 0 -18 9 -28 20 -10 11 -14 20
-8 20 5 0 18 -9 28 -20z m6 -51 c5 -11 7 -19 3 -19 -11 0 -44 32 -44 41 0 14
30 -2 41 -22z m-26 -19 c16 -16 26 -32 24 -34 -6 -7 -69 43 -69 55 0 17 16 9
45 -21z m-39 -6 c14 -9 29 -26 35 -36 9 -17 8 -18 -8 -9 -25 15 -63 48 -63 55
0 10 9 7 36 -10z m-11 -54 c16 -16 24 -30 19 -30 -6 0 -23 14 -39 30 -16 17
-24 30 -19 30 6 0 23 -13 39 -30z m-18 -26 c19 -14 32 -28 29 -31 -5 -6 -86
45 -86 53 0 11 27 1 57 -22z m-28 -23 c13 -10 19 -21 14 -24 -5 -3 -22 5 -39
18 -34 29 -12 34 25 6z m-20 -30 c15 -12 20 -21 13 -25 -12 -7 -62 21 -62 35
0 15 23 10 49 -10z m-24 -31 c27 -30 11 -35 -21 -6 -21 18 -24 25 -13 26 9 0
24 -9 34 -20z m503 -18 c36 -27 41 -42 14 -42 -21 0 -86 63 -76 73 8 7 16 3
62 -31z m-518 -7 c21 -25 1 -31 -22 -7 -18 18 -19 22 -6 22 8 0 21 -7 28 -15z
m-14 -36 c13 -15 14 -20 4 -15 -8 3 -23 9 -32 12 -10 4 -18 10 -18 15 0 17 27
9 46 -12z m494 1 c0 -5 -2 -10 -4 -10 -3 0 -8 5 -11 10 -3 6 -1 10 4 10 6 0
11 -4 11 -10z m-523 -20 c23 -18 23 -20 6 -20 -19 0 -43 17 -43 32 0 13 10 9
37 -12z m-1 -41 c4 -7 -2 -9 -17 -7 -13 2 -25 11 -27 21 -3 16 -1 17 17 8 11
-6 23 -16 27 -22z m-8 -47 c2 -8 -11 -4 -32 10 -20 13 -36 27 -36 31 0 13 63
-26 68 -41z m-42 4 c13 -10 19 -26 19 -50 0 -20 -2 -36 -5 -36 -3 0 -23 12
-43 26 -39 26 -45 44 -9 25 26 -14 42 -14 42 -1 0 6 -6 10 -13 10 -8 0 -22 9
-32 20 -18 19 -17 20 2 20 10 0 28 -6 39 -14z m-28 -81 c20 -14 30 -25 21 -25
-8 0 -24 7 -35 15 -10 8 -27 15 -36 15 -10 0 -18 5 -18 10 0 17 30 11 68 -15z
m-13 -30 c26 -21 27 -24 11 -25 -16 0 -17 -3 -8 -12 33 -33 -9 -27 -63 8 -30
20 -26 31 5 14 16 -9 25 -9 33 -1 8 8 7 11 -5 11 -8 0 -21 7 -28 15 -21 26 21
18 55 -10z m-95 -45 c0 -5 -2 -10 -4 -10 -3 0 -8 5 -11 10 -3 6 -1 10 4 10 6
0 11 -4 11 -10z m67 -38 c-12 -2 -16 -9 -12 -23 8 -25 -7 -24 -36 2 -17 14
-20 22 -11 25 6 3 12 12 12 20 0 12 5 12 33 -3 25 -13 28 -18 14 -21z m-70
-28 c35 -27 44 -48 16 -37 -15 6 -16 4 -5 -9 23 -28 -5 -30 -37 -2 -35 29 -42
51 -12 34 32 -17 36 -12 11 15 -30 32 -16 32 27 -1z m-33 -58 c40 -33 29 -52
-11 -20 -31 24 -43 44 -25 44 4 -1 20 -11 36 -24z m-26 -26 c45 -33 50 -40 27
-40 -17 0 -96 69 -79 70 6 0 30 -14 52 -30z m-5 -36 c9 -4 17 -13 17 -21 0
-10 -6 -13 -16 -9 -12 4 -15 2 -10 -9 7 -18 -15 -20 -32 -3 -9 9 -12 9 -12 0
0 -6 7 -15 16 -20 9 -5 13 -12 8 -15 -5 -3 -25 8 -44 24 -32 26 -33 28 -12 29
12 0 22 5 22 10 0 6 7 10 16 10 9 0 12 5 8 11 -4 7 -2 9 7 5 8 -3 22 -9 32
-12z m-98 -54 c10 -11 16 -22 14 -25 -7 -6 -49 24 -49 36 0 15 16 10 35 -11z
m-20 -30 c10 -11 15 -20 11 -20 -14 0 -46 21 -46 30 0 16 16 11 35 -10z m65
-11 c0 -5 -4 -9 -10 -9 -5 0 -10 7 -10 16 0 8 5 12 10 9 6 -3 10 -10 10 -16z
m-95 -9 c10 -11 15 -23 12 -27 -8 -7 -47 25 -47 39 0 14 16 9 35 -12z m-24
-26 c21 -23 22 -26 5 -23 -19 4 -56 49 -39 49 5 0 20 -12 34 -26z m99 0 c0
-14 -3 -14 -15 -4 -8 7 -15 14 -15 16 0 2 7 4 15 4 8 0 15 -7 15 -16z m-22
-28 c3 -12 -1 -17 -10 -14 -7 3 -15 13 -16 22 -3 12 1 17 10 14 7 -3 15 -13
16 -22z m-82 -12 c34 -26 43 -44 23 -44 -12 0 -69 51 -69 62 0 13 10 9 46 -18z
m-34 -21 c15 -15 28 -33 28 -42 0 -10 -9 -6 -29 13 -18 17 -36 26 -45 23 -17
-7 -22 -37 -6 -37 5 0 7 7 4 15 -4 8 -1 15 5 15 6 0 11 -4 11 -10 0 -5 7 -10
15 -10 8 0 15 -2 15 -4 0 -2 3 -12 7 -22 5 -13 3 -16 -10 -11 -9 3 -17 2 -17
-3 0 -5 -13 -16 -30 -25 -27 -14 -30 -14 -30 0 0 8 7 15 15 15 8 0 15 5 15 11
0 7 -10 5 -25 -5 -37 -24 -51 -19 -25 9 23 24 16 37 -7 14 -7 -7 -19 -9 -27
-6 -17 7 -22 37 -6 37 6 0 10 -4 10 -10 0 -5 5 -10 11 -10 6 0 8 9 4 21 -6 17
-4 20 12 15 13 -4 26 1 38 14 24 26 33 25 67 -7z m88 11 c0 -17 -22 -14 -28 4
-2 7 3 12 12 12 9 0 16 -7 16 -16z m-1300 -24 c0 -5 -4 -10 -9 -10 -6 0 -13 5
-16 10 -3 6 1 10 9 10 9 0 16 -4 16 -10z m41 -16 c12 -14 11 -16 -5 -13 -11 2
-21 10 -24 17 -5 17 13 15 29 -4z m204 -75 c13 -13 -27 -4 -114 25 -36 13 -66
27 -68 33 -4 12 166 -43 182 -58z m792 57 c-4 -10 -1 -13 9 -9 8 3 14 -1 14
-11 0 -9 -4 -16 -9 -16 -14 0 -33 28 -26 40 9 15 18 12 12 -4z m23 -93 c0 -7
-2 -13 -5 -13 -8 0 -65 82 -65 94 1 16 70 -64 70 -81z m-89 63 c0 -3 15 -21
34 -39 38 -37 42 -47 21 -47 -7 0 -19 -7 -26 -15 -21 -25 -46 -17 -74 23 -26
38 -35 69 -16 57 6 -4 8 -11 5 -16 -4 -5 -1 -9 5 -9 7 0 20 -10 30 -22 15 -19
21 -20 41 -11 13 7 18 12 12 12 -7 1 -19 14 -28 31 -15 28 -21 59 -9 48 3 -4
5 -9 5 -12z m-21 -16 c0 -5 -4 -10 -10 -10 -5 0 -10 5 -10 10 0 6 5 10 10 10
6 0 10 -4 10 -10z m158 -13 c18 7 15 -14 -4 -21 -23 -9 -36 -7 -30 3 4 5 1 11
-6 13 -7 3 -8 9 -3 18 7 11 10 10 19 -2 6 -8 17 -13 24 -11z m-798 -7 c0 -5
-7 -10 -15 -10 -8 0 -15 5 -15 10 0 6 7 10 15 10 8 0 15 -4 15 -10z m575 0 c3
-5 1 -10 -4 -10 -6 0 -11 5 -11 10 0 6 2 10 4 10 3 0 8 -4 11 -10z m85 -4 c0
-2 3 -11 6 -20 9 -23 -13 -20 -26 4 -9 16 -8 20 5 20 8 0 15 -2 15 -4z m-110
-19 c0 -8 10 -22 23 -33 12 -10 16 -12 10 -4 -7 8 -13 18 -13 22 0 17 26 6 44
-19 19 -25 19 -26 0 -40 -10 -7 -24 -11 -31 -9 -7 3 -15 1 -18 -5 -4 -5 -11
-7 -16 -4 -5 4 -9 1 -9 -5 0 -7 -6 -10 -14 -7 -8 3 -16 1 -18 -4 -2 -5 -27
-11 -56 -12 -28 -1 -52 -6 -52 -11 0 -5 -6 -3 -13 3 -8 6 -17 7 -22 3 -4 -4
-5 3 -1 14 6 19 3 21 -24 18 -22 -3 -30 1 -30 12 0 8 6 14 13 13 26 -3 36 2
31 16 -4 8 -1 15 5 15 7 0 14 -7 17 -15 4 -9 13 -14 22 -13 8 2 17 -3 20 -11
3 -10 0 -12 -12 -8 -11 5 -16 3 -14 -5 2 -6 18 -12 35 -12 17 -1 29 3 25 8 -3
5 5 7 17 3 13 -3 20 -3 17 0 -9 10 47 35 67 29 14 -3 16 -2 7 9 -8 10 -18 11
-35 5 -13 -5 -26 -6 -29 -3 -3 4 -6 1 -6 -6 0 -7 -4 -10 -9 -7 -5 4 -12 0 -15
-6 -5 -11 -7 -11 -12 0 -3 6 -10 9 -16 6 -11 -7 -28 13 -28 32 0 21 39 23 45
3 5 -16 10 -17 27 -8 11 6 22 8 25 5 10 -10 32 15 26 30 -3 8 0 14 6 14 6 0
11 -6 11 -13z m-29 -10 c-1 -12 -15 -9 -19 4 -3 6 1 10 8 8 6 -3 11 -8 11 -12z
m-31 -7 c0 -5 -7 -10 -15 -10 -8 0 -15 5 -15 10 0 6 7 10 15 10 8 0 15 -4 15
-10z m-154 -37 c-10 -10 -19 5 -10 18 6 11 8 11 12 0 2 -7 1 -15 -2 -18z
m-616 -12 c0 -6 -4 -13 -10 -16 -5 -3 -10 1 -10 9 0 9 5 16 10 16 6 0 10 -4
10 -9z m1625 -41 c3 -5 2 -10 -4 -10 -5 0 -13 5 -16 10 -3 6 -2 10 4 10 5 0
13 -4 16 -10z m-997 -19 c-2 -11 -12 -15 -32 -14 -35 3 -45 11 -27 22 24 15
62 10 59 -8z m1090 -57 c56 -66 83 -116 72 -134 -8 -13 -10 -12 -10 3 0 9 -7
17 -17 17 -9 0 -14 2 -11 5 3 3 -7 20 -22 37 -50 54 -56 64 -52 76 2 7 -2 11
-10 10 -7 -2 -12 5 -12 14 1 10 -4 14 -12 11 -14 -5 -19 8 -8 20 11 11 40 -11
82 -59z m-68 -8 c0 -3 -4 -8 -10 -11 -5 -3 -10 -1 -10 4 0 6 5 11 10 11 6 0
10 -2 10 -4z m0 -58 c0 -12 -10 -9 -26 6 -20 21 -17 28 6 14 11 -7 20 -16 20
-20z m-105 2 c3 -5 1 -10 -4 -10 -6 0 -11 5 -11 10 0 6 2 10 4 10 3 0 8 -4 11
-10z m-1814 -26 c69 -21 72 -23 58 -40 -10 -12 -3 -14 40 -14 64 0 98 -15 80
-36 -9 -11 -7 -14 13 -14 28 0 71 -27 65 -43 -2 -6 8 -22 22 -35 19 -17 22
-25 13 -29 -44 -18 -83 -68 -103 -134 -22 -71 -54 -123 -70 -113 -5 3 -6 10
-3 16 4 5 -4 5 -17 -2 -19 -11 -24 -10 -36 6 -8 11 -13 13 -13 5 0 -25 -28 8
-36 42 -3 17 -28 78 -55 134 -27 57 -49 118 -49 136 -1 79 0 87 12 87 10 0 9
3 -1 9 -16 11 -8 41 12 41 7 0 38 -7 68 -16z m1979 6 c0 -5 -4 -10 -10 -10 -5
0 -10 5 -10 10 0 6 5 10 10 10 6 0 10 -4 10 -10z m-73 -15 c8 -9 13 -19 10
-22 -6 -5 -37 21 -37 31 0 10 11 6 27 -9z m63 -15 c0 -5 -7 -10 -15 -10 -8 0
-15 5 -15 10 0 6 7 10 15 10 8 0 15 -4 15 -10z m-70 -30 c0 -5 -4 -10 -9 -10
-6 0 -13 5 -16 10 -3 6 1 10 9 10 9 0 16 -4 16 -10z m50 6 c0 -11 -19 -15 -25
-6 -3 5 1 10 9 10 9 0 16 -2 16 -4z m30 -6 c0 -5 -2 -10 -4 -10 -3 0 -8 5 -11
10 -3 6 -1 10 4 10 6 0 11 -4 11 -10z m-10 -31 c0 -5 -4 -9 -10 -9 -5 0 -10 7
-10 16 0 8 5 12 10 9 6 -3 10 -10 10 -16z m-30 -19 c0 -5 -2 -10 -4 -10 -3 0
-8 5 -11 10 -3 6 -1 10 4 10 6 0 11 -4 11 -10z m-1523 -182 c77 -82 191 -257
257 -399 47 -101 107 -282 96 -293 -12 -12 -30 2 -30 23 0 9 -6 26 -14 37 -14
18 -15 18 -21 2 -4 -10 -13 -18 -21 -18 -17 0 -18 17 -1 23 6 3 2 6 -10 6 -13
1 -24 -7 -28 -19 -3 -11 -13 -20 -22 -20 -8 0 -13 6 -10 13 2 6 10 11 16 9 7
-1 10 2 6 7 -3 6 -12 8 -20 4 -9 -3 -15 1 -15 10 0 8 6 18 13 20 6 3 2 6 -10
6 -13 1 -22 -2 -20 -6 1 -5 -2 -10 -8 -13 -5 -3 -35 39 -66 93 -75 130 -82
134 -21 12 54 -109 68 -145 55 -145 -4 0 -30 42 -57 93 -62 116 -135 229 -220
341 -36 48 -66 91 -66 96 0 22 20 6 73 -57 105 -128 120 -139 30 -23 -64 83
-76 106 -80 153 -2 27 1 37 12 37 8 0 15 9 15 20 0 11 5 20 10 20 6 0 10 -8
10 -17 0 -13 2 -15 8 -5 5 7 16 10 26 6 9 -3 16 -3 15 2 -3 19 2 24 29 24 20
0 40 -12 69 -42z m780 -89 c77 -25 137 -64 199 -132 42 -45 114 -164 114 -188
0 -4 -10 -10 -22 -12 -20 -4 -19 -4 5 -6 31 -1 38 -21 7 -21 -11 0 -48 -12
-81 -26 -67 -28 -82 -26 -53 7 19 22 19 22 -4 10 -31 -16 -40 -6 -18 18 17 19
17 19 -3 14 -23 -6 -28 6 -8 26 10 10 9 11 -5 6 -21 -8 -25 14 -7 32 9 9 6 10
-10 6 -16 -4 -22 -2 -20 8 7 42 -49 97 -147 145 -122 60 -240 64 -348 14 -26
-13 -49 -20 -52 -18 -12 13 53 70 110 98 112 53 219 59 343 19z m-969 -101
c41 -47 61 -81 56 -90 -3 -4 2 -8 11 -8 8 0 18 -8 22 -17 4 -10 19 -33 35 -51
15 -18 28 -41 28 -51 0 -10 7 -22 16 -25 13 -5 14 -9 4 -21 -7 -9 -10 -18 -6
-22 3 -3 6 -1 6 5 0 20 14 13 26 -13 17 -36 -6 -51 -74 -47 -16 2 -27 11 -35
32 -13 34 -28 41 -20 9 7 -25 -14 -23 -31 3 -8 13 -4 21 15 38 13 12 17 18 9
14 -8 -4 -23 -14 -32 -22 -10 -8 -25 -12 -35 -7 -17 6 -17 7 -1 19 16 12 16
13 -1 27 -9 8 -31 22 -47 31 -32 18 -39 44 -12 42 10 -1 14 4 11 12 -6 17 -20
18 -25 2 -5 -15 -38 13 -38 31 0 6 -4 11 -10 11 -20 0 -10 19 19 36 21 12 27
22 23 37 -4 15 -1 19 10 14 11 -4 18 2 22 19 8 32 22 30 54 -8z m-192 -86 c26
-21 133 -147 162 -189 41 -59 22 -74 -20 -15 -14 20 -61 74 -102 120 -70 76
-88 102 -68 102 4 0 16 -8 28 -18z m1444 -202 c0 -5 -5 -10 -11 -10 -6 0 -17
-7 -25 -15 -19 -19 -34 -19 -34 -2 0 14 34 35 58 36 6 1 12 -3 12 -9z m-1010
-87 c0 -16 -12 -17 -28 -1 -10 10 -19 8 -43 -6 -22 -13 -34 -15 -42 -7 -6 6
-9 12 -6 13 2 2 22 12 44 24 36 18 42 19 58 6 9 -8 17 -21 17 -29z m-29 -16
c-1 -12 -15 -9 -19 4 -3 6 1 10 8 8 6 -3 11 -8 11 -12z"/>
<path d="M10420 2540 c6 -11 13 -20 16 -20 2 0 0 9 -6 20 -6 11 -13 20 -16 20
-2 0 0 -9 6 -20z"/>
<path d="M10681 2370 c0 -8 6 -24 14 -34 19 -25 19 -9 0 24 -8 14 -14 19 -14
10z"/>
<path d="M10125 2640 c-3 -5 -1 -10 4 -10 6 0 11 5 11 10 0 6 -2 10 -4 10 -3
0 -8 -4 -11 -10z"/>
<path d="M9180 5021 c0 -5 5 -13 10 -16 6 -3 10 -2 10 4 0 5 -4 13 -10 16 -5
3 -10 2 -10 -4z"/>
<path d="M12109 4773 c-13 -16 -12 -17 4 -4 16 13 21 21 13 21 -2 0 -10 -8
-17 -17z"/>
<path d="M10130 4686 c0 -2 7 -9 15 -16 9 -7 15 -8 15 -2 0 5 -7 12 -15 16 -8
3 -15 4 -15 2z"/>
<path d="M11906 4463 c-6 -14 -5 -15 5 -6 7 7 10 15 7 18 -3 3 -9 -2 -12 -12z"/>
<path d="M9171 4224 c0 -11 3 -14 6 -6 3 7 2 16 -1 19 -3 4 -6 -2 -5 -13z"/>
<path d="M10307 3909 c7 -7 15 -10 18 -7 3 3 -2 9 -12 12 -14 6 -15 5 -6 -5z"/>
<path d="M9347 3883 c-11 -11 -8 -20 7 -20 8 0 12 6 9 14 -6 15 -7 15 -16 6z"/>
<path d="M11080 3840 c-8 -5 -10 -10 -5 -10 6 0 17 5 25 10 8 5 11 10 5 10 -5
0 -17 -5 -25 -10z"/>
<path d="M10978 3803 c7 -3 16 -2 19 1 4 3 -2 6 -13 5 -11 0 -14 -3 -6 -6z"/>
<path d="M10928 3793 c7 -3 16 -2 19 1 4 3 -2 6 -13 5 -11 0 -14 -3 -6 -6z"/>
<path d="M10868 3783 c6 -2 18 -2 25 0 6 3 1 5 -13 5 -14 0 -19 -2 -12 -5z"/>
<path d="M9435 3689 c-4 -6 -5 -12 -2 -15 2 -3 7 2 10 11 7 17 1 20 -8 4z"/>
<path d="M11018 3573 c7 -3 16 -2 19 1 4 3 -2 6 -13 5 -11 0 -14 -3 -6 -6z"/>
<path d="M10508 3563 c7 -3 16 -2 19 1 4 3 -2 6 -13 5 -11 0 -14 -3 -6 -6z"/>
<path d="M10563 3553 c9 -2 23 -2 30 0 6 3 -1 5 -18 5 -16 0 -22 -2 -12 -5z"/>
<path d="M12636 3348 c-80 -80 -80 -81 -11 -18 108 98 110 100 101 100 -5 0
-45 -37 -90 -82z"/>
<path d="M10518 3393 c7 -3 16 -2 19 1 4 3 -2 6 -13 5 -11 0 -14 -3 -6 -6z"/>
<path d="M10585 3391 c-3 -5 -1 -12 5 -16 5 -3 10 1 10 9 0 18 -6 21 -15 7z"/>
<path d="M10615 3380 c-3 -5 -1 -10 4 -10 6 0 11 5 11 10 0 6 -2 10 -4 10 -3
0 -8 -4 -11 -10z"/>
<path d="M10716 3368 c2 -4 18 -6 34 -6 17 1 28 4 24 7 -8 8 -63 8 -58 -1z"/>
<path d="M12489 3193 c-42 -46 -87 -99 -114 -137 -11 -15 -42 -58 -69 -94 -80
-108 -101 -138 -84 -122 8 8 64 80 124 160 59 80 126 164 147 188 22 23 38 42
35 42 -2 0 -20 -17 -39 -37z"/>
<path d="M12654 3095 c-43 -46 -82 -81 -87 -78 -6 4 -8 0 -4 -10 4 -10 -1 -21
-12 -30 -11 -7 -67 -78 -126 -157 -59 -80 -130 -174 -159 -210 -28 -36 -63
-82 -76 -103 -14 -20 -33 -40 -42 -43 -10 -3 -18 -9 -18 -13 0 -5 -16 -23 -35
-42 -19 -19 -35 -39 -35 -45 0 -11 -71 -76 -174 -159 -103 -83 -233 -161 -368
-220 -270 -118 -546 -156 -888 -121 -25 3 -11 -1 30 -9 41 -7 138 -14 215 -14
363 -2 686 105 1000 331 122 88 287 267 487 529 102 134 225 289 273 344 81
95 112 135 101 135 -3 0 -39 -38 -82 -85z"/>
<path d="M12637 3015 c-54 -66 -160 -201 -235 -300 -261 -344 -384 -478 -552
-597 -198 -140 -428 -237 -683 -288 -173 -35 -519 -26 -694 18 -87 22 -98 24
-87 12 6 -6 26 -13 45 -15 19 -3 61 -11 94 -19 116 -28 236 -45 350 -48 57 -1
304 27 335 39 8 3 26 7 40 7 14 1 31 5 38 9 6 5 12 6 12 2 0 -3 13 1 30 10 16
8 37 15 47 15 10 0 30 6 45 14 15 8 42 17 60 21 18 4 38 11 43 15 6 4 29 14
53 21 23 6 42 16 42 22 0 5 9 7 20 4 11 -3 20 -1 20 4 0 5 6 9 14 9 7 0 19 7
26 15 7 8 20 15 30 15 10 0 21 7 24 16 3 8 10 12 16 9 6 -3 13 1 16 9 3 8 15
18 27 22 12 4 30 17 40 30 19 25 43 33 32 12 -4 -7 5 0 18 16 14 16 30 25 36
22 7 -5 8 -1 4 10 -5 13 -3 16 10 11 11 -4 17 -1 17 8 0 9 8 14 21 12 16 -1
26 7 38 30 10 20 21 31 30 28 9 -4 11 0 7 11 -4 11 3 19 24 27 20 8 33 22 41
44 6 18 15 33 20 33 5 0 14 11 19 25 11 30 30 33 37 6 3 -11 15 -21 26 -23 12
-2 23 -11 25 -21 4 -18 2 -18 -30 -1 -18 9 -36 21 -39 26 -4 7 -9 6 -13 0 -3
-6 10 -19 29 -31 19 -11 35 -25 35 -31 0 -6 -5 -8 -10 -5 -6 4 -17 1 -25 -5
-8 -6 -20 -9 -27 -5 -7 4 -5 0 5 -8 18 -15 23 -37 8 -37 -6 0 -13 5 -16 10
-11 18 -23 11 -18 -10 6 -23 -7 -26 -26 -7 -10 10 -11 9 -6 -4 7 -18 -19 -44
-34 -35 -5 4 -12 2 -16 -4 -3 -5 0 -10 8 -10 17 0 43 -28 33 -37 -3 -3 -15 2
-26 12 -11 10 -23 15 -27 12 -3 -4 -1 -7 6 -7 14 0 6 -38 -13 -58 -19 -19 -48
-4 -41 22 3 11 -5 3 -19 -19 -14 -22 -21 -41 -16 -43 6 -2 10 -8 10 -14 0 -6
-7 -8 -15 -5 -14 6 -29 -8 -30 -28 -1 -5 -7 -9 -14 -7 -7 1 -22 -9 -33 -23
-11 -14 -24 -23 -29 -20 -5 4 -6 -1 -3 -9 4 -10 -2 -15 -18 -18 -15 -2 -24
-11 -26 -25 -4 -27 -10 -28 -36 -8 -28 21 -34 19 -38 -12 -2 -17 -8 -27 -16
-25 -8 1 -27 -9 -44 -23 -35 -29 -48 -31 -49 -7 0 16 -1 16 -8 -1 -3 -10 -18
-24 -31 -30 -14 -7 -25 -19 -25 -26 0 -8 -6 -16 -14 -19 -10 -3 -11 2 -6 19 7
23 6 23 -7 5 -10 -13 -20 -16 -29 -11 -12 8 -12 6 0 -8 12 -16 8 -22 -13 -18
-5 1 -16 -5 -25 -12 -26 -23 -61 -31 -61 -14 0 8 -8 18 -17 22 -15 5 -16 4 -5
-6 20 -21 14 -29 -23 -29 -27 0 -35 -4 -35 -17 -1 -16 -2 -16 -17 2 -13 16
-15 17 -10 2 7 -20 -4 -22 -22 -4 -10 10 -11 9 -6 -5 7 -17 -8 -24 -37 -19 -5
0 -8 -3 -8 -9 0 -5 -5 -10 -11 -10 -6 0 -9 9 -6 20 3 12 0 20 -8 20 -8 0 -11
-8 -8 -20 7 -25 -12 -27 -22 -2 -6 16 -7 16 -21 -2 -8 -11 -23 -21 -34 -23
-10 -1 -23 -4 -27 -5 -4 -2 -10 2 -13 7 -3 6 5 11 18 13 12 2 22 8 22 13 0 12
-4 11 -35 -3 -14 -6 -25 -16 -25 -23 0 -12 -34 -14 -45 -3 -11 10 -45 -4 -45
-18 0 -8 -5 -14 -11 -14 -6 0 -8 8 -5 18 5 14 -1 17 -37 16 -23 0 -47 -3 -52
-6 -6 -3 -18 -4 -27 -3 -11 2 -15 -2 -11 -11 4 -10 -4 -14 -31 -15 -20 -1 -46
-2 -58 -2 -16 -1 -23 4 -22 16 1 9 -1 17 -5 18 -3 0 -17 2 -31 4 -14 2 -19 1
-12 -1 6 -3 12 -12 12 -19 0 -9 -13 -12 -42 -11 -46 1 -54 17 -16 28 16 4 18
6 6 7 -10 1 -18 7 -18 14 0 8 -3 8 -8 2 -9 -14 -52 -17 -52 -5 0 5 -7 7 -15 4
-8 -4 -15 -2 -15 3 0 5 -9 9 -20 9 -23 0 -26 -16 -7 -35 10 -11 9 -13 -6 -7
-10 3 -24 6 -30 6 -8 0 -7 3 2 9 10 7 11 12 1 27 -9 16 -11 16 -6 2 3 -10 1
-20 -5 -24 -23 -14 17 -33 109 -50 77 -15 143 -19 327 -19 257 1 339 13 545
81 221 73 491 232 653 384 48 45 87 77 87 72 0 -5 -40 -47 -88 -93 -260 -248
-642 -430 -982 -469 -103 -12 -488 -8 -542 5 -23 6 -28 4 -28 -11 0 -16 -2
-17 -10 -4 -5 8 -10 10 -10 5 0 -20 31 -55 43 -48 8 4 8 2 -1 -9 -11 -13 -9
-17 15 -23 16 -4 22 -9 16 -13 -13 -8 -12 -37 2 -49 4 -5 5 -1 0 7 -5 8 4 4
18 -9 28 -26 38 -42 12 -21 -18 15 -18 12 -4 -28 6 -17 16 -30 22 -29 6 1 11
-4 12 -12 0 -8 9 -17 20 -22 18 -7 18 -8 2 -8 -10 -1 -15 -6 -12 -11 4 -6 10
-8 15 -5 4 3 13 -2 20 -10 9 -10 9 -15 1 -15 -6 0 -11 5 -11 12 0 6 -3 8 -6 5
-4 -4 -1 -14 7 -24 9 -11 10 -14 2 -9 -7 4 -13 3 -13 -1 0 -5 9 -14 19 -20 12
-8 18 -21 17 -37 -2 -16 1 -23 7 -19 6 4 8 0 4 -11 -4 -11 -3 -15 4 -10 16 10
30 -18 17 -33 -7 -9 -7 -13 1 -13 6 0 10 -3 10 -7 -3 -20 2 -33 12 -33 8 0 8
5 -1 15 -16 19 -3 19 16 0 9 -8 11 -15 5 -15 -6 0 -10 -11 -9 -24 2 -19 5 -22
15 -14 10 8 12 7 8 -4 -4 -9 0 -15 10 -15 8 0 15 7 15 16 0 18 76 111 91 111
5 0 3 -13 -6 -30 -24 -46 -10 -36 19 15 28 48 51 60 42 23 l-6 -23 11 23 c15
28 27 28 31 -1 3 -15 8 -6 17 31 7 28 17 52 22 52 5 0 9 -26 10 -57 l0 -58 17
64 c24 93 47 95 40 5 -6 -68 3 -50 17 39 8 52 22 46 31 -15 l8 -53 10 57 c6
31 15 60 19 64 15 15 27 -20 28 -81 l1 -60 13 58 c7 32 15 60 18 63 13 14 27
-10 29 -49 1 -36 2 -33 7 17 6 60 31 93 31 41 0 -15 4 -24 10 -20 6 3 10 17
10 30 0 28 15 41 27 23 4 -7 11 -44 14 -83 l6 -70 2 80 c4 151 31 153 34 3 1
-90 0 -95 -36 -163 -52 -98 -89 -140 -150 -169 -57 -28 -157 -46 -157 -28 0 5
-9 8 -20 5 -11 -3 -27 0 -35 7 -8 7 -22 9 -31 6 -13 -5 -15 -1 -12 19 5 25 5
25 -14 9 -27 -26 -46 -5 -30 33 11 24 11 26 -1 10 -18 -21 -47 -22 -47 -1 0 8
5 25 11 37 11 21 11 21 -11 -1 -34 -36 -48 -13 -21 33 30 51 27 52 -18 4 -22
-22 -44 -38 -50 -34 -7 3 -8 0 -5 -9 3 -9 10 -13 15 -10 5 3 17 0 26 -5 17
-10 17 -10 1 -11 -10 0 -18 -4 -18 -9 0 -6 9 -8 20 -6 18 3 25 -5 21 -28 0 -4
3 -7 9 -7 5 0 10 -7 10 -15 0 -7 7 -18 16 -23 11 -6 15 -19 12 -38 -2 -19 2
-36 14 -48 16 -18 17 -18 24 8 4 18 11 25 20 22 8 -3 14 1 14 9 0 18 12 19 28
3 9 -9 12 -9 12 0 0 21 36 13 48 -11 l11 -22 0 23 c1 29 29 29 40 0 l8 -23 7
23 c9 28 34 28 46 -1 8 -21 9 -21 9 6 1 33 31 38 32 5 l1 -23 6 23 c9 30 25
30 34 0 6 -22 6 -22 7 4 1 31 16 45 25 22 10 -26 7 -62 -7 -76 -7 -7 -18 -28
-25 -46 -16 -46 -73 -128 -129 -187 -26 -27 -46 -54 -44 -60 1 -5 -1 -7 -5 -3
-4 4 -13 3 -20 -3 -17 -14 4 -39 26 -31 12 5 13 3 3 -10 -15 -18 -7 -29 15
-21 11 5 14 2 9 -10 -8 -20 10 -26 95 -28 49 -2 70 2 82 14 9 8 30 18 47 22
73 16 203 82 280 141 94 72 204 228 239 336 10 34 15 38 68 49 31 6 95 24 142
40 46 16 88 25 92 21 5 -5 -3 -35 -17 -67 -114 -256 -377 -453 -720 -540 l-60
-15 50 6 c62 7 211 57 290 96 215 108 394 294 466 482 19 49 31 64 67 85 65
39 203 124 236 146 l29 19 -6 -79 c-16 -202 -101 -372 -267 -536 -212 -209
-461 -316 -800 -343 -25 -2 2 -2 60 0 287 9 570 140 781 361 86 90 124 143
164 228 47 101 73 190 85 292 7 61 17 101 25 106 8 4 40 30 72 57 32 27 61 50
65 50 12 0 21 -154 14 -262 -11 -169 -50 -304 -92 -314 -25 -6 -54 -39 -54
-61 0 -40 74 -57 104 -24 14 16 16 26 7 55 -8 30 -5 53 14 119 42 146 47 193
44 366 -2 91 0 182 5 201 8 33 1 28 -105 -76 -63 -61 -135 -125 -161 -143 -52
-35 -146 -81 -165 -81 -27 0 -11 21 35 44 119 61 325 234 365 308 l19 33 -29
-35 c-88 -109 -186 -194 -298 -259 -77 -45 -85 -48 -85 -27 0 13 32 44 76 74
11 7 0 3 -23 -8 -49 -23 -63 -25 -63 -7 0 7 26 28 57 46 31 19 109 86 173 149
l115 115 -111 -106 c-106 -99 -170 -146 -221 -162 -46 -13 -23 22 40 63 34 22
71 51 82 64 l20 23 -25 -21 c-37 -32 -122 -84 -137 -84 -25 0 -13 29 22 50 45
28 45 33 -1 14 -63 -26 -62 0 1 36 31 18 96 71 143 117 l87 85 -89 -81 c-90
-81 -188 -142 -203 -128 -4 5 0 13 10 18 41 23 170 135 224 193 32 35 77 97
101 138 44 77 101 227 102 265 0 12 5 25 12 29 11 7 7 -68 -7 -136 -3 -14 2
-7 11 15 13 33 18 108 25 415 6 206 8 401 7 432 l-3 57 -140 -192 c-170 -232
-215 -290 -221 -284 -3 3 79 118 181 256 l185 251 0 59 c0 39 -5 65 -15 74
-13 13 -13 19 1 46 8 17 14 43 12 58 -3 26 -11 18 -101 -92z m68 -15 c3 -5 1
-10 -4 -10 -6 0 -11 5 -11 10 0 6 2 10 4 10 3 0 8 -4 11 -10z m-54 -33 c-1
-12 -15 -9 -19 4 -3 6 1 10 8 8 6 -3 11 -8 11 -12z m39 3 c0 -5 -4 -10 -10
-10 -5 0 -10 5 -10 10 0 6 5 10 10 10 6 0 10 -4 10 -10z m-30 -30 c5 8 13 11
17 6 4 -5 2 -11 -4 -13 -7 -3 -13 -10 -13 -16 -1 -29 -16 -38 -43 -26 -28 13
-39 36 -12 25 8 -3 22 -9 30 -12 11 -5 13 -2 9 10 -3 9 -10 13 -15 10 -5 -3
-9 2 -9 12 0 14 2 14 16 3 13 -10 17 -10 24 1z m-80 -55 c0 -3 -7 -13 -14 -22
-8 -10 -24 -29 -35 -43 -10 -14 -22 -23 -25 -20 -3 3 8 21 24 40 17 19 30 38
30 43 0 4 5 7 10 7 6 0 10 -2 10 -5z m53 -15 c8 0 8 -3 1 -10 -12 -12 -44 -3
-44 12 0 6 7 7 16 4 9 -3 21 -6 27 -6z m-29 -33 c16 -12 16 -14 2 -26 -19 -16
-21 -14 -30 17 -8 25 2 28 28 9z m-44 -37 c-11 -20 -30 -28 -30 -12 0 11 22
32 32 32 5 0 4 -9 -2 -20z m-60 -29 c-13 -26 -27 -34 -35 -21 -3 5 -1 10 4 10
6 0 11 7 11 15 0 8 7 15 15 15 12 0 14 -4 5 -19z m80 -1 c0 -5 -4 -10 -10 -10
-5 0 -10 5 -10 10 0 6 5 10 10 10 6 0 10 -4 10 -10z m-50 -10 c0 -5 -4 -10
-10 -10 -5 0 -10 5 -10 10 0 6 5 10 10 10 6 0 10 -4 10 -10z m30 -20 c0 -5 -4
-10 -10 -10 -5 0 -10 5 -10 10 0 6 5 10 10 10 6 0 10 -4 10 -10z m-50 -10 c0
-5 -2 -10 -4 -10 -3 0 -8 5 -11 10 -3 6 -1 10 4 10 6 0 11 -4 11 -10z m-50 -9
c0 -5 -7 -14 -15 -21 -12 -10 -15 -10 -15 2 0 8 3 18 7 21 9 10 23 9 23 -2z
m91 -7 c12 -14 11 -16 -5 -13 -11 2 -21 10 -24 17 -5 17 13 15 29 -4z m-21
-28 c0 -11 -19 -15 -25 -6 -3 5 1 10 9 10 9 0 16 -2 16 -4z m-100 -10 c0 -3
-4 -8 -10 -11 -5 -3 -10 -1 -10 4 0 6 5 11 10 11 6 0 10 -2 10 -4z m70 -11
c21 -25 1 -31 -22 -7 -18 18 -19 22 -6 22 8 0 21 -7 28 -15z m-35 -17 c14 -6
25 -17 25 -25 0 -19 -7 -16 -38 12 -29 27 -26 31 13 13z m-65 -8 c0 -5 -4 -10
-10 -10 -5 0 -10 5 -10 10 0 6 5 10 10 10 6 0 10 -4 10 -10z m-20 -30 c0 -5
-4 -10 -10 -10 -5 0 -10 5 -10 10 0 6 5 10 10 10 6 0 10 -4 10 -10z m55 -10
c16 -17 16 -20 2 -20 -9 0 -19 5 -22 11 -5 6 -12 4 -21 -8 -17 -23 -18 -10 -2
17 16 25 20 25 43 0z m-30 -68 c-9 -2 -25 4 -36 14 -25 23 -37 10 -14 -16 21
-23 13 -39 -9 -21 -22 18 -29 50 -16 66 9 11 18 9 52 -13 29 -20 36 -28 23
-30z m22 22 c-9 -9 -28 6 -21 18 4 6 10 6 17 -1 6 -6 8 -13 4 -17z m-92 -72
c-9 -9 -46 38 -39 49 3 5 15 -2 26 -16 11 -14 17 -29 13 -33z m-31 3 c18 -27
15 -30 -15 -15 -10 6 -19 17 -19 25 0 23 16 18 34 -10z m-28 -32 c4 -14 2 -34
-3 -43 -7 -11 -8 -22 -1 -34 14 -24 6 -28 -20 -10 -21 14 -21 17 -6 45 11 22
12 34 5 43 -6 7 -8 16 -4 19 13 13 23 7 29 -20z m64 -13 c0 -5 -2 -10 -4 -10
-3 0 -8 5 -11 10 -3 6 -1 10 4 10 6 0 11 -4 11 -10z m-113 -36 c-9 -9 -28 6
-21 18 4 6 10 6 17 -1 6 -6 8 -13 4 -17z m138 -74 c-3 -5 -11 -10 -16 -10 -6
0 -7 5 -4 10 3 6 11 10 16 10 6 0 7 -4 4 -10z m-71 -86 c-21 -25 -47 -56 -56
-68 -9 -11 -19 -18 -22 -15 -3 3 19 36 50 73 31 37 58 65 61 62 3 -3 -12 -26
-33 -52z m406 -18 c0 -3 -4 -8 -10 -11 -5 -3 -10 -1 -10 4 0 6 5 11 10 11 6 0
10 -2 10 -4z m-694 -43 c-10 -10 -19 5 -10 18 6 11 8 11 12 0 2 -7 1 -15 -2
-18z m139 17 c3 -5 1 -10 -4 -10 -6 0 -11 5 -11 10 0 6 2 10 4 10 3 0 8 -4 11
-10z m555 -14 c0 -3 -4 -8 -10 -11 -5 -3 -10 -1 -10 4 0 6 5 11 10 11 6 0 10
-2 10 -4z m-690 -106 c0 -5 -4 -10 -10 -10 -5 0 -10 5 -10 10 0 6 5 10 10 10
6 0 10 -4 10 -10z m404 -5 c-4 -8 -8 -15 -10 -15 -2 0 -4 7 -4 15 0 8 4 15 10
15 5 0 7 -7 4 -15z m-44 -60 c0 -14 -8 -42 -17 -63 -15 -35 -17 -36 -21 -12
-5 29 15 100 28 100 6 0 10 -11 10 -25z m280 -90 c-19 -62 -87 -194 -131 -252
-58 -77 -245 -229 -271 -221 -6 2 26 34 70 72 156 130 237 238 303 407 26 67
35 80 37 60 2 -14 -2 -44 -8 -66z m-32 43 c-18 -85 -90 -214 -171 -310 -44
-53 -144 -134 -153 -125 -3 3 37 51 90 107 101 106 140 166 196 293 37 85 53
99 38 35z m-688 12 c0 -5 -4 -10 -10 -10 -5 0 -10 5 -10 10 0 6 5 10 10 10 6
0 10 -4 10 -10z m377 -73 c-3 -23 -15 -49 -28 -61 -21 -20 -22 -20 -14 -1 4
11 13 41 18 67 13 56 32 52 24 -5z m226 -4 c-7 -49 -61 -145 -117 -208 -66
-75 -66 -48 1 42 32 43 71 106 86 141 16 34 30 62 32 62 2 0 1 -17 -2 -37z
m-673 17 c0 -5 -4 -10 -10 -10 -5 0 -10 5 -10 10 0 6 5 10 10 10 6 0 10 -4 10
-10z m401 -41 c-4 -33 -40 -105 -58 -121 -14 -12 -15 -9 -9 26 15 80 79 170
67 95z m-481 11 c0 -5 -4 -10 -10 -10 -5 0 -10 5 -10 10 0 6 5 10 10 10 6 0
10 -4 10 -10z m406 -87 c-2 -10 -7 -32 -11 -50 -3 -17 -13 -37 -21 -44 -14
-11 -15 -8 -8 27 4 21 11 49 15 62 10 26 33 30 25 5z m-576 -13 c0 -5 -4 -10
-10 -10 -5 0 -10 5 -10 10 0 6 5 10 10 10 6 0 10 -4 10 -10z m530 -30 c0 -25
-30 -100 -40 -100 -10 0 0 89 12 113 11 21 28 13 28 -13z m-60 -64 c0 -40 -41
-96 -70 -96 -10 0 -22 -4 -25 -10 -9 -15 -25 -12 -25 5 0 25 32 91 37 78 6
-17 23 -17 23 0 0 20 30 57 46 57 9 0 14 -11 14 -34z m-140 -80 c0 -35 -31
-73 -50 -61 -8 5 -7 14 4 31 9 13 16 32 16 42 0 10 3 22 6 25 13 13 24 -5 24
-37z m-930 4 c0 -5 -4 -10 -10 -10 -5 0 -10 5 -10 10 0 6 5 10 10 10 6 0 10
-4 10 -10z m860 -59 c0 -22 -10 -38 -42 -65 -43 -37 -68 -46 -68 -23 0 18 29
57 43 57 7 0 20 14 29 30 22 38 38 38 38 1z m292 -180 c-50 -43 -106 -78 -101
-63 5 14 133 110 139 104 3 -2 -14 -21 -38 -41z m-252 24 c-7 -9 -15 -13 -17
-11 -7 7 7 26 19 26 6 0 6 -6 -2 -15z m285 -55 c-35 -36 -155 -100 -186 -100
-18 1 -11 8 31 29 30 16 82 49 115 73 63 47 86 46 40 -2z m-1540 10 c3 -5 2
-10 -4 -10 -5 0 -13 5 -16 10 -3 6 -2 10 4 10 5 0 13 -4 16 -10z m1155 -9 c0
-6 -4 -13 -10 -16 -5 -3 -10 1 -10 9 0 9 5 16 10 16 6 0 10 -4 10 -9z m430 -9
c0 -23 -68 -73 -152 -112 -141 -65 -164 -45 -25 23 50 25 108 59 127 76 41 35
50 38 50 13z m-480 -22 c-6 -12 -14 -19 -17 -17 -2 3 1 15 7 27 6 12 14 19 17
17 2 -3 -1 -15 -7 -27z m489 -36 c-13 -14 -43 -37 -66 -51 -24 -14 -43 -27
-43 -29 0 -7 41 16 77 42 36 28 53 30 53 9 0 -8 -18 -27 -40 -41 -22 -15 -40
-29 -40 -31 0 -5 15 3 52 29 31 22 38 22 38 5 0 -20 -29 -43 -101 -82 -35 -19
-60 -35 -56 -35 11 0 87 39 120 62 27 19 27 19 27 -1 0 -52 -255 -160 -377
-161 -62 0 -53 16 20 33 l62 15 -44 1 c-60 1 -44 13 63 45 48 15 86 29 84 32
-3 2 -31 -5 -63 -16 -32 -11 -69 -20 -82 -20 -45 0 -22 19 55 45 42 14 88 33
102 41 27 16 24 16 -67 -17 -29 -11 -63 -19 -75 -19 -19 0 -20 2 -8 13 8 8 38
22 65 32 65 23 151 67 195 99 19 14 44 25 54 26 18 0 17 -2 -5 -26z m-789 -4
c0 -11 -4 -20 -10 -20 -5 0 -10 9 -10 20 0 11 5 20 10 20 6 0 10 -9 10 -20z
m-715 -100 c3 -5 1 -10 -4 -10 -6 0 -11 5 -11 10 0 6 2 10 4 10 3 0 8 -4 11
-10z m1075 -30 c0 -13 -58 -42 -73 -37 -7 2 4 14 23 25 39 24 50 27 50 12z
m34 -12 c-4 -7 -16 -19 -26 -26 -10 -7 -16 -18 -12 -23 8 -14 -62 -85 -108
-109 -21 -11 -50 -20 -65 -20 -21 0 -24 -3 -13 -10 24 -15 3 -24 -65 -28 -72
-5 -89 11 -27 24 29 6 32 9 15 12 -43 7 -23 22 30 23 28 0 70 7 92 15 39 13
32 13 -47 -1 -42 -8 -88 0 -88 15 0 6 22 10 49 10 55 0 166 31 196 55 18 15
17 15 -12 0 -34 -16 -148 -21 -139 -6 3 5 30 11 60 13 39 3 69 14 103 35 52
34 68 40 57 21z m-137 -34 c-3 -3 -12 -4 -19 -1 -8 3 -5 6 6 6 11 1 17 -2 13
-5z m543 -3 c0 -23 -103 -84 -202 -120 -70 -26 -207 -51 -272 -50 l-51 1 44
20 c24 11 73 24 109 29 128 18 241 57 317 107 33 22 55 27 55 13z m-635 -61
c3 -5 -3 -10 -15 -10 -12 0 -18 5 -15 10 3 6 10 10 15 10 5 0 12 -4 15 -10z
m228 -160 c-3 -40 -94 -199 -146 -257 -116 -126 -316 -225 -484 -240 -72 -6
-73 -6 -73 18 0 46 25 66 97 79 191 34 334 163 384 345 l16 60 78 7 c43 4 83
9 89 12 24 10 41 0 39 -24z m-346 4 c-3 -3 -12 -4 -19 -1 -8 3 -5 6 6 6 11 1
17 -2 13 -5z m83 -127 c-43 -115 -137 -201 -268 -246 -72 -25 -120 -27 -128
-7 -3 8 25 64 63 125 37 60 80 129 94 153 25 43 26 43 107 56 45 7 96 19 114
27 l33 13 3 -32 c2 -18 -7 -58 -18 -89z"/>
<path d="M11988 1053 c7 -3 16 -2 19 1 4 3 -2 6 -13 5 -11 0 -14 -3 -6 -6z"/>
<path d="M12174 2783 c-15 -20 -23 -33 -16 -29 13 8 56 66 49 66 -3 0 -17 -17
-33 -37z"/>
<path d="M9930 2740 c10 -6 11 -10 3 -10 -7 0 -13 -4 -13 -10 0 -5 7 -6 17 -3
11 4 14 3 9 -5 -4 -7 -1 -12 8 -12 8 0 13 6 12 13 -3 22 -17 37 -34 37 -15 0
-15 -2 -2 -10z"/>
<path d="M12129 2723 c-13 -16 -12 -17 4 -4 16 13 21 21 13 21 -2 0 -10 -8
-17 -17z"/>
<path d="M12099 2683 c-13 -16 -12 -17 4 -4 16 13 21 21 13 21 -2 0 -10 -8
-17 -17z"/>
<path d="M12069 2643 c-13 -16 -12 -17 4 -4 16 13 21 21 13 21 -2 0 -10 -8
-17 -17z"/>
<path d="M12034 2598 l-19 -23 23 19 c21 18 27 26 19 26 -2 0 -12 -10 -23 -22z"/>
<path d="M11980 2530 c-18 -23 -31 -42 -29 -44 2 -2 19 16 37 40 41 55 35 58
-8 4z"/>
<path d="M11852 2544 c15 -8 39 -31 53 -52 14 -20 25 -32 25 -27 0 30 -62 94
-90 94 -8 0 -3 -6 12 -15z"/>
<path d="M11980 2426 c23 -25 60 -52 60 -43 0 2 -19 19 -42 37 -38 29 -40 30
-18 6z"/>
<path d="M10080 2403 c0 -5 5 -15 10 -23 7 -12 9 -10 7 8 -1 19 -17 33 -17 15z"/>
<path d="M12146 2314 c-5 -14 -4 -15 9 -4 17 14 19 20 6 20 -5 0 -12 -7 -15
-16z"/>
<path d="M12085 2231 c-3 -5 -1 -12 5 -16 5 -3 10 1 10 9 0 18 -6 21 -15 7z"/>
<path d="M12030 2170 c-6 -11 -8 -20 -6 -20 3 0 10 9 16 20 6 11 8 20 6 20 -3
0 -10 -9 -16 -20z"/>
<path d="M11985 2150 c-3 -5 -1 -10 4 -10 6 0 11 5 11 10 0 6 -2 10 -4 10 -3
0 -8 -4 -11 -10z"/>
<path d="M12042 2138 c-7 -7 -12 -19 -12 -27 0 -11 5 -8 16 7 18 25 15 39 -4
20z"/>
<path d="M10506 2117 c3 -10 9 -15 12 -12 3 3 0 11 -7 18 -10 9 -11 8 -5 -6z"/>
<path d="M11967 2123 c-4 -3 -7 -11 -7 -17 0 -6 5 -5 12 2 6 6 9 14 7 17 -3 3
-9 2 -12 -2z"/>
<path d="M11915 2090 c-3 -5 -1 -10 4 -10 6 0 11 5 11 10 0 6 -2 10 -4 10 -3
0 -8 -4 -11 -10z"/>
<path d="M11831 2023 c7 -10 15 -20 16 -22 2 -2 3 3 3 11 0 9 -7 19 -16 22
-15 6 -15 4 -3 -11z"/>
<path d="M10561 1963 c0 -12 -4 -30 -7 -40 -5 -17 -5 -17 6 0 6 10 9 28 7 40
-4 22 -4 22 -6 0z"/>
<path d="M11788 1933 c7 -3 16 -2 19 1 4 3 -2 6 -13 5 -11 0 -14 -3 -6 -6z"/>
<path d="M10360 1920 c8 -5 22 -9 30 -9 10 0 8 3 -5 9 -27 12 -43 12 -25 0z"/>
<path d="M11723 1905 c-3 -9 -3 -18 -1 -21 3 -3 8 4 11 16 6 23 -1 27 -10 5z"/>
<path d="M10485 1885 c53 -18 93 -19 77 -3 -6 6 -35 13 -64 14 l-53 2 40 -13z"/>
<path d="M12676 1875 c-3 -9 -6 -22 -5 -28 0 -7 5 -1 10 12 5 13 8 26 5 28 -2
2 -6 -3 -10 -12z"/>
<path d="M12676 1755 c-9 -26 -7 -32 5 -12 6 10 9 21 6 23 -2 3 -7 -2 -11 -11z"/>
<path d="M12554 1648 l-19 -23 23 19 c21 18 27 26 19 26 -2 0 -12 -10 -23 -22z"/>
<path d="M10780 1630 c0 -5 7 -7 15 -4 8 4 15 8 15 10 0 2 -7 4 -15 4 -8 0
-15 -4 -15 -10z"/>
<path d="M12595 1426 c-44 -46 -98 -98 -120 -115 -23 -19 -27 -24 -9 -12 47
31 128 106 174 161 23 28 40 50 38 50 -1 -1 -39 -38 -83 -84z"/>
<path d="M10650 1260 c0 -5 5 -10 11 -10 5 0 7 5 4 10 -3 6 -8 10 -11 10 -2 0
-4 -4 -4 -10z"/>
</g>
</svg>
